<?xml version="1.0" encoding="UTF-8"?>
<svg id="Capa_1" data-name="Capa 1" xmlns="http://www.w3.org/2000/svg" xmlns:xlink="http://www.w3.org/1999/xlink" viewBox="0 0 463.27 411.58">
  <defs>
    <style>
      .cls-1 {
        fill: #bce2ee;
      }

      .cls-1, .cls-2, .cls-3, .cls-4, .cls-5, .cls-6, .cls-7, .cls-8, .cls-9, .cls-10, .cls-11, .cls-12, .cls-13, .cls-14, .cls-15, .cls-16, .cls-17, .cls-18, .cls-19, .cls-20, .cls-21, .cls-22, .cls-23, .cls-24, .cls-25, .cls-26, .cls-27 {
        stroke-width: 0px;
      }

      .cls-2 {
        fill: #fac41d;
      }

      .cls-3 {
        fill: #223851;
      }

      .cls-4 {
        fill: #e2d3e0;
      }

      .cls-5 {
        fill: #8f7cb8;
      }

      .cls-6 {
        fill: #086885;
      }

      .cls-7 {
        fill: #eceff4;
      }

      .cls-8 {
        fill: #5fa3d5;
      }

      .cls-9 {
        fill: none;
      }

      .cls-10 {
        fill: #342252;
      }

      .cls-11 {
        fill: #ebe8eb;
      }

      .cls-12 {
        fill: #686868;
      }

      .cls-13 {
        fill: #e2e3e3;
      }

      .cls-14 {
        fill: #4472b8;
      }

      .cls-15 {
        fill: #f1f7fa;
      }

      .cls-16 {
        fill: #8ad1ef;
      }

      .cls-17 {
        fill: #3ebfe8;
      }

      .cls-18 {
        fill: #43a5cc;
      }

      .cls-19 {
        fill: #f6b6b8;
      }

      .cls-20 {
        fill: #d3dde0;
      }

      .cls-21 {
        fill: #352656;
      }

      .cls-22 {
        fill: #7275b6;
      }

      .cls-23 {
        fill: #fff;
      }

      .cls-24 {
        fill: #b87bb3;
      }

      .cls-25 {
        fill: #c7c6e5;
      }

      .cls-26 {
        fill: #9191c7;
      }

      .cls-27 {
        fill: #37bbd3;
      }
    </style>
    <clipPath id="clippath">
      <rect class="cls-9" x="-838.34" y="-1132.29" width="612" height="796.66"/>
    </clipPath>
    <clipPath id="clippath-1">
      <polygon class="cls-9" points="24.34 -341.57 -258.58 -335.63 -258.58 -1134.48 26.03 -1134.48 -73.92 -742.48 24.34 -341.57"/>
    </clipPath>
  </defs>
  <g>
    <path class="cls-13" d="M451.33,70.22h-172.61c-6.58,0-11.94-5.36-11.94-11.94s5.36-11.94,11.94-11.94h172.61c6.58,0,11.94,5.36,11.94,11.94s-5.36,11.94-11.94,11.94ZM278.71,47.81c-5.77,0-10.46,4.69-10.46,10.46s4.69,10.46,10.46,10.46h172.61c5.77,0,10.46-4.69,10.46-10.46s-4.69-10.46-10.46-10.46h-172.61Z"/>
    <path class="cls-18" d="M451.33,209.95h-172.61c-6.38,0-11.57-5.19-11.57-11.57s5.19-11.57,11.57-11.57h172.61c6.38,0,11.57,5.19,11.57,11.57s-5.19,11.57-11.57,11.57Z"/>
    <path class="cls-13" d="M394.76,23.14h-118.89c-6.38,0-11.57-5.19-11.57-11.57s5.19-11.57,11.57-11.57h118.89c6.38,0,11.57,5.19,11.57,11.57s-5.19,11.57-11.57,11.57Z"/>
    <path class="cls-13" d="M451.33,116.92h-172.61c-6.58,0-11.94-5.36-11.94-11.94s5.36-11.94,11.94-11.94h172.61c6.58,0,11.94,5.36,11.94,11.94s-5.36,11.94-11.94,11.94ZM278.71,94.51c-5.77,0-10.46,4.69-10.46,10.46s4.69,10.46,10.46,10.46h172.61c5.77,0,10.46-4.69,10.46-10.46s-4.69-10.46-10.46-10.46h-172.61Z"/>
    <path class="cls-13" d="M451.33,163.62h-172.61c-6.58,0-11.94-5.36-11.94-11.94s5.36-11.94,11.94-11.94h172.61c6.58,0,11.94,5.36,11.94,11.94s-5.36,11.94-11.94,11.94ZM278.71,141.22c-5.77,0-10.46,4.69-10.46,10.46s4.69,10.46,10.46,10.46h172.61c5.77,0,10.46-4.69,10.46-10.46s-4.69-10.46-10.46-10.46h-172.61Z"/>
    <path class="cls-13" d="M272.78,37.76h45.24c1.08,0,1.96.87,1.96,1.96h0c0,1.08-.88,1.96-1.96,1.96h-45.24c-1.08,0-1.96-.87-1.96-1.96h0c0-1.08.88-1.96,1.96-1.96Z"/>
    <path class="cls-13" d="M272.78,85.57h45.24c1.08,0,1.96.87,1.96,1.95h0c0,1.08-.88,1.96-1.96,1.96h-45.24c-1.08,0-1.96-.87-1.96-1.95h0c0-1.08.88-1.96,1.96-1.96Z"/>
    <path class="cls-13" d="M272.78,133.38h45.24c1.08,0,1.96.87,1.96,1.96h0c0,1.08-.88,1.95-1.96,1.95h-45.24c-1.08,0-1.96-.87-1.96-1.96h0c0-1.08.88-1.95,1.96-1.95Z"/>
  </g>
  <g>
    <polygon class="cls-18" points="231.23 221.86 228.54 226.03 153.96 170.31 156.65 166.13 231.23 221.86"/>
    <g>
      <ellipse class="cls-11" cx="97.07" cy="173.52" rx="51.96" ry="2.38"/>
      <g>
        <path class="cls-23" d="M179.29,125.22c6.59-49.26-27.36-94.85-75.81-101.81C55.02,16.45,10.4,50.74,3.82,100c-6.59,49.26,27.36,94.85,75.81,101.81,48.45,6.96,93.07-27.33,99.66-76.59Z"/>
        <path class="cls-18" d="M92.2,205.72c-4.31,0-8.65-.31-12.99-.93C29.2,197.6-5.95,150.42.84,99.6c3.33-24.88,16.05-46.83,35.83-61.79,19.37-14.65,43.25-20.83,67.23-17.38,50,7.18,85.15,54.37,78.36,105.18h0c-3.33,24.88-16.05,46.83-35.83,61.79-15.86,12-34.75,18.31-54.24,18.31ZM90.92,25.52c-18.19,0-35.81,5.89-50.62,17.09-18.49,13.99-30.39,34.51-33.5,57.79-6.36,47.56,26.51,91.71,73.26,98.43,22.39,3.22,44.67-2.54,62.75-16.22,18.49-13.99,30.39-34.51,33.5-57.79h0c6.36-47.56-26.51-91.72-73.26-98.43-4.05-.58-8.1-.87-12.13-.87Z"/>
      </g>
      <path class="cls-15" d="M122.68,101.21c-.9-1.52-2.48-2.06-4.16-2.06-.71-.51-1.67-.69-2.82-.25-15.27,5.84-30.32,12.21-45.1,19.16-7.25,3.41-14.44,6.96-21.55,10.64-6.88,3.56-14.32,6.9-20.59,11.43-4.77,3.45-9.17,8.52-7.86,14.74,1.23,5.86,7.08,9.41,12.86,9.91,7.51.64,14.45-3.95,20.57-7.55,6.72-3.94,13.33-8.05,19.83-12.31,13.25-8.69,26.05-18.06,38.34-28.01,3.8-3.08,14.16-9.47,10.46-15.69Z"/>
      <path class="cls-15" d="M162.3,120.18c-2.07-2.08-4.88-3.36-7.79-3.73-.35-.29-.8-.52-1.35-.68-14.79-4.16-28.93,4.84-39.83,13.36-5.68,4.44-10.86,9.42-15.57,14.79-4.4,5.01-9.24,11.04-6.14,17.88,6.58,14.53,26.47,7.5,37.68,3.76,13.82-4.6,28.11-12.42,34.82-25.42,3.26-6.31,3.58-14.51-1.83-19.96Z"/>
      <rect class="cls-23" x="63.08" y="90.3" width="66.12" height="74.01" rx="4.42" ry="4.42"/>
      <path class="cls-2" d="M26.95,127.57v1.88c-.27.23-.57.49-1.03.89-.5-.09-1.2-.21-2-.36-.18-.73-.36-1.46-.56-2.26.64-.46,1.21-.87,1.85-1.33.6.41,1.19.8,1.75,1.18Z"/>
      <path class="cls-5" d="M53.57,149.42c.26,1.01.96,1.77,1.44,2.66.17.31.25.67.41,1.14h-4.27c-.17-1.23.87-1.91,1.31-2.86.16-.33.4-.63.6-.94h.5Z"/>
      <path class="cls-8" d="M28.91,155.87h-1.81c-.14-.41-.28-.8-.45-1.28.75-.21,1.37-.38,2.15-.6.02-.38.06-.92.09-1.52h1.36c.13.47.29,1.03.46,1.64h1.05c.26.31.55.64.91,1.07-.11.16-.26.38-.44.64h-1.61c-.04.59-.07,1.14-.1,1.65-.52.6-1.03.73-1.63.01v-1.61Z"/>
      <g>
        <g>
          <rect class="cls-16" x="87.47" y="104.98" width="30.1" height="2.29"/>
          <rect class="cls-16" x="76.15" y="105.12" width="7.52" height="2.29"/>
        </g>
        <g>
          <rect class="cls-16" x="87.47" y="112.14" width="30.1" height="2.29"/>
          <rect class="cls-16" x="76.15" y="112.29" width="7.52" height="2.29"/>
        </g>
        <g>
          <rect class="cls-16" x="87.47" y="119.81" width="30.1" height="2.29"/>
          <rect class="cls-16" x="76.15" y="119.95" width="7.52" height="2.29"/>
        </g>
        <g>
          <rect class="cls-16" x="87.47" y="128.41" width="30.1" height="2.29"/>
          <rect class="cls-16" x="76.15" y="128.55" width="7.52" height="2.29"/>
        </g>
        <g>
          <rect class="cls-16" x="87.47" y="136.08" width="30.1" height="2.29"/>
          <path class="cls-16" d="M77.94,136.15h5.73v2.29h-7.52v-.5c0-.93.79-1.79,1.79-1.79Z"/>
        </g>
        <path class="cls-16" d="M122.94,166.17h-53.74c-4.73,0-8.6-3.87-8.6-8.6v-61.12c0-4.73,3.87-8.6,8.6-8.6h53.74c4.73,0,8.6,3.87,8.6,8.6v61.05c0,4.8-3.87,8.67-8.6,8.67ZM69.2,90.72c-3.15,0-5.73,2.58-5.73,5.73v61.05c0,3.15,2.58,5.73,5.73,5.73h53.74c3.15,0,5.73-2.58,5.73-5.73v-61.05c0-3.15-2.58-5.73-5.73-5.73h-53.74Z"/>
        <rect class="cls-16" x="87.47" y="143.24" width="14.04" height="2.29"/>
        <path class="cls-16" d="M81.38,141.95c.21-.07.43-.07.72-.07s.57.07.86.14l.07.14-1.65,2.51,1.79,2.72c-.43.29-.79.43-1.15.43-.43,0-.72-.14-1-.57l-.72-1.15-.93,1.58c-.14.07-.43.07-.72.07s-.64-.07-.86-.14l-.07-.07,1.72-2.72-1.65-2.51c.36-.29.79-.36,1.22-.36.21,0,.36.07.5.14.14.07.29.21.36.43l.57.93.93-1.5Z"/>
        <path class="cls-12" d="M107.46,87.71v-2.87h-21.5v2.87h-18.99v71.16h58.76v-71.16h-18.27ZM122.87,156.07h-53.03v-65.49h53.03v65.49Z"/>
        <g>
          <path class="cls-12" d="M114.56,146.97l-1.07,5.02,5.16-.29,5.37-4.66,12.61-11.04-4.08-4.73-17.99,15.69Z"/>
          <path class="cls-12" d="M112.12,153.06l1.43-6.74,19.06-16.7,5.52,6.31-19.06,16.7-6.95.43Z"/>
        </g>
      </g>
    </g>
  </g>
  <g>
    <path class="cls-1" d="M372.37,361.1c.41.23.82.66,1.22.65,6.31-.11,12.62-.29,18.94-.42,3.12-.07,6.23-.07,9.35-.1-4.34,6.79-10.35,11.89-16.74,16.6-13.61,10.01-29.43,14.73-45.54,18.64-12.71,3.08-25.6,5.19-38.73,5.34-9.07.11-18.18.5-27.2-.16-15.87-1.16-31.45-4.18-46.77-8.62-11.98-3.48-24.03-6.8-36.17-9.64-5.93-1.39-12.16-1.5-18.25-2.22-1.24-.15-2.46-.45-3.69-.68,1.68-.71,3.36-1.43,5.57-2.37-4.27-3.04-8.47-2.61-12.48-3,.66-3.1,1.32-6.19,1.97-9.29,4.68-.13,9.36-.22,14.04-.41,9.55-.39,19.1-.85,28.64-1.28,6.7-.01,13.41-.02,20.11-.03,2.15,0,4.29-.01,6.44-.02.06.18.1.37.1.57-14.18.66-28.36,1.29-42.53,2-1.5.08-3.59-.32-3.43,2.42.14,2.36,1.46,2.79,3.54,2.77,6.86-.08,13.72,0,20.58,0,16.07-.01,32.14-.04,48.21-.07,1.17.03,2.35.1,3.52.09,18.89-.15,37.78-.27,56.67-.49,14.87-.18,29.75-.45,44.62-.83,1.21-.03,2.78-.95,3.51-1.95,1.72-2.34,3.03-4.98,4.51-7.51Z"/>
    <path class="cls-1" d="M61.39,367.09c9.74-.19,19.47-.35,29.21-.6,2.63-.07,5.26-.41,7.89-.62,13.12-.18,26.23-.36,39.35-.54.72,1.03,1.27,2.24,2.19,3.04,2.07,1.83,3.47,3.86,4.26,6.61,1.17,4.08,2.04,4.37,6.29,4.51,1.66.05,3.31.43,4.97.66.2.18.39.36.59.53-3.92.55-7.87.96-11.76,1.68-7.17,1.34-14.28,3.02-21.47,4.25-3.18.54-6.49.34-9.74.48-.42-.2-.83-.48-1.27-.59-15.85-3.71-31.71-7.41-47.57-11.11-.97-2.77-1.95-5.54-2.92-8.31Z"/>
    <path class="cls-7" d="M64.31,375.4c15.86,3.7,31.72,7.4,47.57,11.11.45.1.85.39,1.27.59-1.01.2-2.02.49-3.04.57-4.8.39-9.61.82-14.42,1.02-1.34.06-2.69-.88-4.06-.93-4.19-.14-8.39-.07-12.58-.07-6.31,0-13.47-5.97-14.74-12.29Z"/>
    <path class="cls-7" d="M264.78,410.56c27.66.78,55.25.68,82.35-6.09-27.08,7.03-54.58,8.35-82.35,6.09Z"/>
    <path class="cls-21" d="M156.12,380.69c-.2-.18-.39-.36-.59-.53,3-.56,5.35-1.94,6.35-5.03,4.01.39,8.21-.04,12.48,3-2.21.94-3.89,1.65-5.57,2.37-3.26.08-6.51.16-9.77.24-.2,0-.41,0-.61,0-.76-.01-1.53-.03-2.29-.04Z"/>
    <path class="cls-7" d="M355.51,402.49c-1.98.56-3.97,1.12-5.95,1.69-.07-.23-.14-.46-.21-.69,1.98-.6,3.96-1.21,5.94-1.81.07.27.15.55.22.82Z"/>
    <path class="cls-7" d="M363.78,399.61c-.78.3-1.55.62-2.35.88-.23.08-.53-.02-.94-.53,1.06-.38,2.12-.76,3.19-1.14.03.26.07.53.1.79Z"/>
    <path class="cls-7" d="M365.21,398.2c.47-.16.94-.32,1.41-.48.06.15.13.3.19.45-.46.23-.91.45-1.37.68-.08-.22-.16-.44-.24-.65Z"/>
    <path class="cls-7" d="M368.95,397.11c.21-.15.41-.3.62-.44-.21.15-.42.29-.62.44h0Z"/>
    <path class="cls-7" d="M368.95,397.1c-.21.15-.41.29-.62.44.21-.15.42-.29.62-.44h0Z"/>
    <path class="cls-7" d="M359.18,400.94c-.08.04-.16.13-.24.12-.07,0-.14-.1-.21-.16.15.01.3.03.45.04Z"/>
    <path class="cls-7" d="M357.42,401.56c-.17.05-.25.07-.34.1-.02-.07-.04-.15-.06-.22.11.03.22.07.4.12Z"/>
    <path class="cls-25" d="M158.41,380.74c.2,0,.41,0,.61,0-.2,0-.41,0-.61,0Z"/>
    <path class="cls-17" d="M372.37,361.1c-1.48,2.52-2.79,5.16-4.51,7.51-.73,1-2.3,1.92-3.51,1.95-14.87.38-29.74.65-44.62.83-18.89.23-37.78.34-56.67.49-1.17,0-2.35-.06-3.52-.09.78-2.72,1.56-5.44,2.33-8.16.22-.19.54-.33.63-.57,2.93-8.02,5.84-16.05,8.76-24.08,4.31-10.21,8.62-20.43,12.94-30.64,1.77-3.15,3.56-6.29,5.32-9.44,1.58-2.83,3.98-4.05,7.2-4.16,9.68-.31,19.35-1.06,29.03-1.06,18.79,0,37.59.32,56.38.65,4.19.07,8.37.71,12.56,1.03,1.94.15,3.02,1.11,2.52,3.01-1.45,5.56-2.53,11.29-4.72,16.56-6.09,14.7-12.67,29.2-19.06,43.78-.35.8-.72,1.6-1.08,2.4ZM339.89,324.95c-2.59.77-5.15,1-7.03,2.24-2.21,1.46-2.16,5.55-.52,7.72,1.72,2.27,4.26,2.88,7.02,1.37,1.42-.78,2.93-1.83,3.74-3.16,1.05-1.71,2.32-4.07,1.85-5.67-.36-1.22-3.27-1.7-5.07-2.52ZM340.25,324.12c.17.37.34.75.5,1.12,2.06-1.02,4.12-2.04,6.18-3.06-.13-.27-.26-.53-.39-.8-2.7-.47-4.91.19-6.3,2.74Z"/>
    <path class="cls-6" d="M137.83,365.33c-13.12.18-26.23.36-39.35.54-3.03-12.72-5.54-25.6-9.2-38.13-6.02-20.62-12.84-41-19.19-61.53-1.12-3.62-1.89-7.39-2.36-11.15-.55-4.38.02-5.26,4.3-6.12,6.79-1.37,13.62-2.88,20.5-3.39,11.11-.82,22.29-1.42,33.4-1.08,8.53.26,17.03,1.97,25.5,3.35,3.24.53,6.35,1.9,8.11,5.09.65,1.63,1.3,3.25,1.95,4.88-.31.36-.56.84-.95,1.08-6.32,3.82-10.42,9.63-14.12,15.79-9.82,16.31-16.82,33.87-22.49,51.96-2.47,7.89-4.52,15.94-4.34,24.37.1,4.6,1.91,8,6.36,9.47,3.68,1.22,7.49,2.06,11.24,3.07.21.6.43,1.2.64,1.81Z"/>
    <path class="cls-3" d="M161.49,257.79c-.65-1.63-1.3-3.25-1.95-4.88-.65-5.43,1.45-9.47,6.06-12.38,1.68-1.06,3.15-2.45,4.66-3.76,2.49-2.17,3.27-4.81,2.72-8.16-.94-5.71-1.58-11.48-2.14-17.25-.1-1.07.5-2.77,1.32-3.25,3.47-2.07,7.02-4.17,10.81-5.51,2.38-.84,4.05-1.95,4.8-4.16,1.91-5.66,3.46-11.45,5.55-17.04.62-1.65,2.36-3.17,3.95-4.13,6.74-4.05,14.12-5.71,21.94-4.69,7.65,1,12.93,5.5,16.93,11.87.72,1.15,2.23,1.82,3.43,2.64,2.7,1.85,5.96,3.22,7.96,5.63,1.38,1.66,1.54,4.79,1.34,7.19-.31,3.75-1.66,7.41-2.05,11.17-.29,2.85-2.09,4.96-2.78,7.56-1.38,5.26.26,10.02,4.9,12.64,5.56,3.15,8.27,8.29,9.96,14,1.96,6.65.43,12.96-3.03,18.86-.93-.7-1.79-1.53-2.8-2.09-5.84-3.22-11.72-6.38-17.59-9.56-.39-.04-.78-.07-1.16-.11h.02c-.43-.34-.86-.69-1.28-1.04-.52-.09-1.05-.18-1.57-.26-.2-.04-.39-.09-.59-.13-2.5-1.64-5.13-3.12-7.41-5.02-.6-.5-.67-2.87-.1-3.36,4.31-3.73,6.59-8.64,8.64-13.74.18-.44.67-.76,1.01-1.14.39-.02.78-.04,1.18-.06-.39-.4-.79-.81-1.18-1.21.82-2.7,1.64-5.4,2.46-8.1,1.07.47,2.13.94,3.2,1.41.12-.23.24-.45.36-.68-1.16-.63-2.31-1.26-3.47-1.89.71-3.91,1.49-7.81,2.12-11.73.56-3.45.01-4.43-3.32-5.26-6.46-1.61-14.56.42-19.43,7.44-1.6,2.3-3.56,4.41-5.63,6.3-1.81,1.65-4.73,1.18-6.13-.79-.93-1.31-1.6-2.82-2.23-4.31-1.16-2.74-4.08-3.67-5.81-1.61-2.3,2.76-1.5,5.9-.5,8.91.78,2.33,2.45,3.41,5,2.51,1.08,9.66,3.77,18.22,11.27,24.62-5.34-1.3-9.16-4.61-12.47-9.18-.49,1.93-.73,3.38-1.22,4.73-1.47,3.99-3.81,7.2-8.16,8.43-1,.34-2.01.69-3.01,1.03-.19.04-.38.1-.56.16-.67.04-1.39-.08-1.99.14-4.63,1.76-9.27,3.54-13.85,5.43-2.77,1.14-5.44,2.51-8.16,3.78ZM238.58,222.6c-.32-.22-.64-.44-.95-.66-.54,1.08-1.07,2.16-1.61,3.24.23.14.45.27.68.41.63-1,1.25-1.99,1.88-2.99Z"/>
    <path class="cls-20" d="M235.48,252.5c5.87,3.18,11.75,6.33,17.59,9.56,1.01.56,1.87,1.39,2.8,2.09,9.36,10.42,15.17,23.14,22.55,34.84,1.35,2.14,2.67,4.3,4,6.45-4.55,10.54-9.09,21.07-13.64,31.61-3.34-3.93-6.69-7.87-10.03-11.8-2.31-6.98-4.5-14-7.01-20.91-.75-2.05-2.4-3.78-3.64-5.65-.39.11-.78.21-1.17.32-.29,3.31-.58,6.61-.87,9.92-.4,3.66-1.15,7.32-1.13,10.97.04,10.32.39,20.64.62,30.96-3.18-3.37-6.73-5.57-11.72-5.04-2.74.29-5.58-.3-8.37-.5,0-3.54-.01-7.08-.02-10.63.64-.87,1.49-1.66,1.88-2.64,3.53-8.97,7.06-17.95,10.42-26.99,1.78-4.78,3.22-9.67,4.82-14.52-.87.22-1.1.67-1.28,1.14-5.28,14.03-10.54,28.05-15.82,42.08-.4-15.17.05-30.28,1.96-45.37,1.57-12.41,2.71-24.87,4.04-37.31.52.09,1.05.18,1.57.26.43.35.86.7,1.28,1.05,0,0-.02-.01-.02-.01,1.1,2.92,2.2,5.83,3.31,8.75.2-.07.41-.15.61-.22-.92-2.81-1.84-5.61-2.76-8.42ZM238.51,274.91c.39-.4.78-.8,1.16-1.19,1.9-1.8,1.47-3.71.65-5.91-.36,2.07-.67,3.8-.97,5.54-.39.39-.78.78-1.17,1.18-.34.26-.69.51-1.03.77-1.73.75-2.42,1.76-1.14,3.2.5-.97.97-1.9,1.44-2.83.35-.25.7-.5,1.06-.75ZM239.56,265.4c-.04.5-.07,1-.11,1.5.2-.02.4-.04.6-.06-.15-.49-.31-.98-.46-1.47-.2-.59-.39-1.18-.59-1.76-.16-.52-.31-1.04-.47-1.57-.24.16-.47.31-.71.47.38.37.76.75,1.15,1.12.2.59.39,1.18.59,1.77ZM242.45,284.15c-.29-.46-.59-.93-.88-1.39-.77-.77-1.54-1.55-2.32-2.32-.58-.48-1.17-.96-1.75-1.44-.13.19-.26.39-.38.58.59.39,1.18.79,1.78,1.18.79.78,1.57,1.56,2.36,2.34.4.34.81.68,1.21,1.02-.07.51-.14,1.02-.21,1.53.25-.04.5-.08.75-.13-.19-.46-.37-.92-.56-1.39ZM242.01,288.45c.13.05.26.1.4.15.16-.29.32-.58.48-.87-.22-.08-.43-.16-.65-.25-.07.32-.15.64-.22.97Z"/>
    <path class="cls-4" d="M284.21,308.34c-4.31,10.21-8.62,20.43-12.94,30.64-.56-.4-1.13-.8-1.69-1.2,4.45-10.37,8.9-20.74,13.35-31.12.42.56.85,1.11,1.27,1.67Z"/>
    <path class="cls-14" d="M282.94,306.67c-4.45,10.37-8.9,20.74-13.35,31.12-.27-.25-.53-.49-.8-.74,4.55-10.54,9.09-21.08,13.64-31.61.17.41.35.82.52,1.23Z"/>
    <path class="cls-26" d="M67.89,279.47c.52,1.11,1.15,2.18,1.54,3.34,2.22,6.56,4.39,13.15,6.57,19.73.32.98.56,1.99.21,3.2-.46-1.31-.93-2.62-1.37-3.94-2.13-6.39-4.26-12.77-6.35-19.17-.33-1-.42-2.08-.63-3.12l.03-.03Z"/>
    <path class="cls-22" d="M334.29,291.37h27.22c0,.2,0,.39,0,.59-9.08,0-18.17,0-27.25,0,.01-.2.02-.39.04-.59Z"/>
    <path class="cls-26" d="M334.29,291.37c-.01.2-.02.39-.04.59-3.94,0-7.88,0-11.82,0,0-.2-.02-.39-.03-.59h11.89Z"/>
    <path class="cls-26" d="M80.7,319.79c-.61-1.88-1.22-3.77-1.83-5.65.21-.08.43-.15.64-.23.65,1.86,1.3,3.72,1.94,5.58-.25.1-.51.2-.76.3Z"/>
    <path class="cls-22" d="M286.71,299.57c-.38.61-.75,1.21-1.13,1.82-.12-.12-.24-.24-.36-.36.37-.59.74-1.18,1.12-1.77.13.1.25.21.38.31Z"/>
    <path class="cls-22" d="M283.58,303.74c.3-.45.59-.9.89-1.35.13.08.27.16.4.24-.27.51-.55,1.01-.82,1.52-.16-.14-.31-.27-.47-.41Z"/>
    <path class="cls-22" d="M287.92,297.83c-.4.58-.8,1.16-1.2,1.73-.12-.1-.25-.21-.38-.31.42-.58.84-1.15,1.26-1.73.1.1.21.21.32.31Z"/>
    <path class="cls-26" d="M77.46,309.3v-.89c.08,0,.15,0,.23,0v.89c-.08,0-.15,0-.23,0Z"/>
    <path class="cls-26" d="M78.21,311.13c-.12-.14-.28-.26-.29-.38,0-.16.11-.33.17-.5.11.1.3.2.31.31.01.16-.1.33-.19.57Z"/>
    <path class="cls-26" d="M78.79,312.9c-.11-.13-.27-.24-.27-.35,0-.16.1-.32.16-.48.1.1.28.19.29.3.01.15-.1.31-.18.53Z"/>
    <path class="cls-26" d="M77.1,306.64v.9c-.08,0-.16,0-.24,0v-.9h.24Z"/>
    <path class="cls-22" d="M289.49,295.31c.21-.11.41-.21.62-.32-.09.22-.18.43-.27.65-.12-.11-.23-.22-.35-.33Z"/>
    <path class="cls-22" d="M291.17,294.39c0,.06.02.14,0,.17-.04.05-.12.06-.19.08,0-.12,0-.23.01-.35.06.03.12.06.18.09Z"/>
    <path class="cls-26" d="M67.85,279.5c-.08-.1-.15-.19-.23-.29.09.08.17.17.26.25,0,0-.03.03-.03.03Z"/>
    <path class="cls-22" d="M285.58,301.39c-.16.16-.33.32-.49.47.04-.28.09-.56.13-.83.12.12.24.24.36.36Z"/>
    <path class="cls-22" d="M289.85,295.63c-.2.2-.41.39-.61.59-.11-.11-.22-.22-.33-.33.2-.2.39-.39.59-.59.12.11.24.22.35.33Z"/>
    <path class="cls-22" d="M289.24,296.22c-.21.09-.43.19-.64.28.1-.2.21-.41.31-.61.12.1.23.21.33.33Z"/>
    <path class="cls-22" d="M287.6,297.52l.59-.33c-.09.21-.18.42-.27.63-.11-.1-.21-.2-.32-.31Z"/>
    <path class="cls-20" d="M161.49,257.79c2.72-1.27,5.39-2.64,8.16-3.78,4.58-1.9,9.21-3.67,13.85-5.43.59-.23,1.32-.1,1.99-.14.07.53.14,1.07.21,1.6.12-.01.24-.02.35-.03v-1.73c1-.34,2.01-.69,3.01-1.03.19.36.37.72.56,1.08.19.39.38.77.57,1.16.4.58.81,1.17,1.21,1.75.19.2.38.4.58.61h0c.13.18.26.37.39.56.08.2.15.4.23.6.38.41.75.81,1.13,1.22l-.02-.03c.2.21.4.41.6.62l-.02-.02c.2.4.41.79.61,1.19l-.02-.02c.45.96.83,1.95,1.36,2.87,6.6,11.44,11.92,23.48,12.75,36.74.71,11.46-.02,23.01-.11,34.51-.31.18-.62.36-.93.54-4.93-12.67-9.85-25.34-14.78-38.02-.16,1.01.04,1.91.36,2.76,2.68,7.23,5.32,14.47,8.11,21.66,2.19,5.62,4.57,11.17,6.87,16.75.01.29.04.58.04.87-.04,2.32-.95,5.23.12,6.78.99,1.43,4.14,1.26,6.25,2.04.89.33,1.55,1.27,2.32,1.93-.99,4.8-1.99,9.6-2.98,14.39-1.72,2.97-4.7,3.7-7.72,4.36-9.55.43-19.09.88-28.64,1.28-4.68.19-9.36.28-14.04.41.15-3.87.29-7.73.44-11.6-.81-.74-1.52-1.94-2.45-2.13-6.09-1.25-12.22-1.1-18.28.3-.63.14-1.06,1.14-1.58,1.73-.09,1.26.03,2.56-1.98,2.41-1.94-.15-2.8,1.13-2.87,2.93-.05,1.34.03,2.69.05,4.04-3.75-1.01-7.56-1.85-11.24-3.07-4.45-1.48-6.26-4.88-6.36-9.47-.18-8.42,1.87-16.48,4.34-24.37,5.67-18.09,12.67-35.65,22.49-51.96,3.7-6.15,7.8-11.96,14.12-15.79.39-.24.64-.71.95-1.08ZM192.52,290.09c-.04.5-.08,1-.11,1.51.2-.02.4-.04.6-.06-.15-.49-.31-.98-.46-1.47-.09-.46-.18-.91-.27-1.37-.23.12-.46.24-.69.35.31.34.62.69.93,1.03ZM194.61,276.34c-1.93,1.93-3.62,3.99-3.95,7.71,1.7-2.96,2.99-5.2,4.28-7.45,0-.62,0-1.24,0-1.86-6.28-2.52-8.89-7.13-7.9-13.81-1.97,5.85-.79,10.62,4.63,12.75.99.39,1.94.87,2.92,1.31,0,.45,0,.9.01,1.35ZM177.74,296.68c-6.46,11.55-13.22,23.64-20.14,36.01,2.52.38,4.63.69,6.92,1.04.16-1.68.24-2.94.39-4.19.65-5.13,2.29-9.76,7.1-12.46,3.58-2.01,5.41-5.11,5.66-9,.27-4.04.06-8.11.06-11.4ZM185.75,258.01c.24,0,.49-.02.73-.03-.05-.57-.1-1.14-.15-1.7-.19.01-.38.03-.57.04v1.69ZM191.14,284.95c-.07-.17-.09-.42-.21-.47-.12-.05-.32.1-.49.17.07.17.09.42.21.47.11.05.32-.1.49-.17ZM186.24,254.34c.08,0,.16,0,.24,0v-.87c-.08,0-.16,0-.24,0v.87Z"/>
    <path class="cls-19" d="M214.25,359.8c.99-4.8,1.99-9.6,2.98-14.39,2.75-.03,5.49-.06,8.24-.09,2.79.19,5.63.79,8.37.5,4.99-.53,8.54,1.67,11.72,5.04,2.39,2.61,4.78,5.22,7.17,7.83-.26.31-.52.63-.78.94-1.62-.52-3.24-1.04-4.86-1.56-1.73-1.3-3.46-2.6-5.19-3.9-.09.12-.19.23-.28.35,1.83,2.71,3.65,5.42,5.48,8.13.06.5.13,1,.19,1.51-.24,2.26-1.77,3.09-3.7,2.76-3.49-.59-6.93-1.48-10.39-2.25,0-.19-.04-.38-.1-.57-2.18-4.75-3.54-5.55-7.07-4.17-3.93,1.04-7.87,2.18-11.76-.14Z"/>
    <path class="cls-10" d="M233.19,364.67c3.46.77,6.9,1.66,10.39,2.25,1.93.33,3.47-.5,3.7-2.76,4.87-.18,9.74-.35,14.61-.53-.78,2.72-1.56,5.44-2.33,8.16-16.07.02-32.14.05-48.21.07-6.86,0-13.72-.08-20.58,0-2.08.03-3.41-.41-3.54-2.77-.16-2.73,1.93-2.34,3.43-2.42,14.18-.71,28.35-1.34,42.53-2Z"/>
    <path class="cls-4" d="M226.64,364.13c-.21-1.4-.42-2.79-.63-4.19,3.54-1.38,4.89-.58,7.07,4.17-2.15,0-4.29.01-6.44.02Z"/>
    <path class="cls-7" d="M261.89,363.63c-4.87.18-9.74.35-14.61.53-.06-.5-.13-1-.19-1.5,0-1.53,0-3.05,0-4.58,1.62.52,3.24,1.04,4.86,1.56.26-.31.52-.63.78-.94-2.39-2.61-4.78-5.22-7.17-7.83-.23-10.32-.58-20.64-.62-30.96-.01-3.66.73-7.32,1.13-10.98.77.99,1.54,1.98,2.31,2.97,3.46,4.45,6.92,8.9,10.38,13.35,3.34,3.93,6.69,7.87,10.03,11.8.27.24.53.49.8.74.56.4,1.13.8,1.69,1.2-2.91,8.03-5.82,16.06-8.76,24.08-.09.23-.41.38-.63.57Z"/>
    <path class="cls-10" d="M339.89,324.95c1.8.82,4.71,1.3,5.07,2.52.47,1.6-.8,3.96-1.85,5.67-.82,1.33-2.32,2.38-3.74,3.16-2.76,1.51-5.31.9-7.02-1.37-1.64-2.17-1.69-6.27.52-7.72,1.89-1.24,4.45-1.47,7.03-2.24Z"/>
    <path class="cls-21" d="M340.25,324.12c1.39-2.55,3.6-3.21,6.3-2.74.13.27.26.53.39.8-2.06,1.02-4.12,2.04-6.18,3.06-.17-.37-.34-.75-.5-1.12Z"/>
    <path class="cls-19" d="M192.59,253c-.08-.2-.15-.4-.23-.6-.13-.19-.26-.38-.39-.56h0c-.19-.2-.38-.4-.58-.6-.4-.58-.81-1.17-1.21-1.75-.19-.39-.38-.77-.57-1.16-.19-.36-.37-.72-.56-1.08,4.35-1.23,6.69-4.44,8.16-8.43.5-1.35.74-2.8,1.22-4.73,3.31,4.57,7.13,7.88,12.47,9.18-7.51-6.39-10.2-14.96-11.27-24.62-2.55.9-4.22-.17-5-2.51-1-3.01-1.8-6.15.5-8.91,1.72-2.06,4.64-1.13,5.81,1.61.63,1.49,1.3,3,2.23,4.31,1.41,1.97,4.33,2.44,6.13.79,2.07-1.89,4.04-4,5.63-6.3,4.87-7.02,12.97-9.05,19.43-7.44,3.33.83,3.88,1.8,3.32,5.26-.63,3.92-1.41,7.82-2.12,11.73-.03.39-.05.78-.08,1.16-.82,2.7-1.64,5.4-2.46,8.1,0,0,0,.04,0,.04.02.26.03.52.05.78,0,.15-.03.3-.05.45-.35.38-.84.69-1.01,1.14-2.05,5.1-4.32,10.01-8.64,13.74-.57.49-.5,2.86.1,3.36,2.29,1.9,4.91,3.38,7.41,5.02-.25,1.83-.36,3.69-.78,5.48-1.29,5.57-5.49,11.31-13.21,10.73-7.25-.54-13.21-3.64-18.44-8.5-1.09-1.01-2.39-1.81-3.59-2.7l.02.02c-.2-.4-.41-.79-.61-1.19,0,0,.02.02.02.02-.2-.21-.4-.41-.6-.62l.02.03c-.38-.41-.75-.81-1.13-1.22Z"/>
    <path class="cls-14" d="M235.48,252.5c.92,2.81,1.84,5.61,2.76,8.42-.2.07-.41.15-.61.22-1.1-2.92-2.2-5.83-3.31-8.75.39.04.78.07,1.16.11Z"/>
    <path class="cls-21" d="M238.58,222.6c-.63,1-1.25,1.99-1.88,2.99-.23-.14-.45-.27-.68-.41.54-1.08,1.07-2.16,1.61-3.24.32.22.64.44.95.66Z"/>
    <path class="cls-21" d="M235.47,218.34c.03-.39.05-.78.08-1.16,1.16.63,2.31,1.26,3.47,1.89-.12.23-.24.45-.36.68-1.07-.47-2.13-.94-3.2-1.41Z"/>
    <path class="cls-21" d="M233.02,227.7c.03-.15.05-.3.05-.45-.02-.26-.03-.52-.05-.78,0,0,0-.04,0-.04.39.4.79.81,1.18,1.21-.39.02-.78.04-1.18.06Z"/>
    <path class="cls-14" d="M234.33,252.41c-.43-.35-.86-.7-1.28-1.05.43.35.86.7,1.28,1.05Z"/>
    <path class="cls-27" d="M186.04,248.27v1.73c-.12.01-.24.02-.35.03-.07-.53-.14-1.07-.21-1.6.18-.07.37-.12.56-.16Z"/>
    <path class="cls-21" d="M258.76,325.24c-3.46-4.45-6.92-8.9-10.38-13.35-.77-.99-1.54-1.98-2.31-2.97.29-3.31.58-6.61.87-9.92.39-.11.78-.21,1.17-.32,1.24,1.87,2.89,3.6,3.64,5.65,2.51,6.91,4.7,13.93,7.01,20.91Z"/>
    <path class="cls-14" d="M225.44,334.69c0-.31.02-.62.02-.92,5.27-14.03,10.54-28.05,15.82-42.08.18-.47.41-.93,1.28-1.14-1.6,4.84-3.04,9.74-4.82,14.52-3.36,9.04-6.89,18.01-10.42,26.99-.38.97-1.24,1.76-1.88,2.64Z"/>
    <path class="cls-14" d="M239.35,273.34c.3-1.74.61-3.47.97-5.54.82,2.2,1.25,4.11-.65,5.91-.11-.12-.22-.25-.32-.37Z"/>
    <path class="cls-14" d="M237.45,275.66c-.47.93-.95,1.86-1.44,2.83-1.28-1.44-.59-2.45,1.14-3.2.1.12.2.25.3.37Z"/>
    <path class="cls-14" d="M241.25,283.11c-.79-.78-1.57-1.56-2.36-2.34.12-.11.24-.22.36-.33.77.77,1.54,1.55,2.32,2.32-.11.12-.21.24-.32.35Z"/>
    <path class="cls-27" d="M238.97,263.63c-.38-.37-.76-.75-1.15-1.12.24-.16.47-.31.71-.47.16.52.31,1.04.47,1.57l-.03.02Z"/>
    <path class="cls-14" d="M238.9,280.76c-.59-.39-1.18-.79-1.78-1.18.13-.19.26-.39.38-.58.58.48,1.17.96,1.75,1.44-.12.11-.24.22-.36.33Z"/>
    <path class="cls-27" d="M242.45,284.15c.19.46.37.92.56,1.39-.25.04-.5.08-.75.13.07-.51.14-1.02.21-1.53l-.02.02Z"/>
    <path class="cls-27" d="M242.01,288.45c.07-.32.15-.64.22-.97.22.08.43.16.65.25-.16.29-.32.58-.48.87-.13-.05-.26-.1-.4-.15Z"/>
    <path class="cls-14" d="M242.47,284.13c-.4-.34-.81-.68-1.21-1.02.11-.11.21-.23.32-.35.29.46.59.93.88,1.39,0,0,.02-.02.02-.02Z"/>
    <path class="cls-27" d="M239,263.61c.2.59.39,1.18.59,1.76l-.03.03c-.2-.59-.39-1.18-.59-1.77,0,0,.03-.02.03-.02Z"/>
    <path class="cls-27" d="M239.59,265.37c.15.49.31.98.46,1.47-.2.02-.4.04-.6.06.04-.5.07-1,.11-1.5,0,0,.03-.03.03-.03Z"/>
    <path class="cls-14" d="M238.18,274.52c.39-.39.78-.78,1.17-1.18.11.12.21.25.32.37-.39.4-.78.8-1.16,1.19-.11-.13-.22-.26-.33-.39Z"/>
    <path class="cls-14" d="M237.15,275.29c.34-.26.69-.51,1.03-.77.1.13.21.26.32.39-.35.25-.7.5-1.05.75-.1-.12-.2-.25-.3-.37Z"/>
    <path class="cls-21" d="M177.74,296.68c0,3.29.21,7.36-.06,11.4-.26,3.89-2.08,6.99-5.66,9-4.81,2.7-6.45,7.33-7.1,12.46-.16,1.25-.24,2.51-.39,4.19-2.29-.34-4.39-.66-6.92-1.04,6.92-12.37,13.68-24.46,20.14-36.01Z"/>
    <path class="cls-21" d="M164.29,354.25c-7.45,2.07-14.88,1.78-22.31-.09.52-.6.95-1.59,1.58-1.73,6.06-1.4,12.19-1.55,18.28-.3.92.19,1.64,1.39,2.45,2.13Z"/>
    <path class="cls-14" d="M208.68,332.52c-.06.42-.12.84-.18,1.26-2.3-5.58-4.69-11.12-6.87-16.75-2.79-7.19-5.43-14.43-8.11-21.66-.32-.86-.52-1.76-.36-2.76,4.93,12.67,9.85,25.34,14.78,38.02.25.63.49,1.26.74,1.89Z"/>
    <path class="cls-14" d="M194.6,275c-.97-.44-1.92-.93-2.91-1.32-5.42-2.13-6.6-6.9-4.63-12.75-.99,6.68,1.63,11.29,7.9,13.81-.11.09-.23.18-.35.26Z"/>
    <path class="cls-14" d="M194.95,276.6c-1.29,2.24-2.58,4.49-4.28,7.45.33-3.71,2.01-5.77,3.95-7.71.11.08.23.17.34.26Z"/>
    <path class="cls-27" d="M185.75,258.01v-1.69c.19-.01.38-.03.57-.04.05.57.1,1.14.15,1.7-.24,0-.49.02-.73.03Z"/>
    <path class="cls-27" d="M192.52,290.09c-.31-.34-.62-.69-.93-1.03.23-.12.46-.24.69-.35.09.46.18.91.27,1.37l-.02.02Z"/>
    <path class="cls-27" d="M208.68,332.52c-.25-.63-.49-1.26-.74-1.89.31-.18.62-.36.93-.54-.06.81-.13,1.62-.19,2.43Z"/>
    <path class="cls-27" d="M192.54,290.07c.15.49.31.98.46,1.47-.2.02-.4.04-.6.06.04-.5.08-1,.11-1.51,0,0,.02-.02.02-.02Z"/>
    <path class="cls-27" d="M191.14,284.95c-.17.06-.37.22-.49.17-.12-.05-.14-.31-.21-.47.17-.06.37-.22.49-.17.12.05.14.31.21.47Z"/>
    <path class="cls-27" d="M186.24,254.34v-.87c.08,0,.16,0,.24,0v.87c-.08,0-.16,0-.24,0Z"/>
    <path class="cls-14" d="M194.61,276.34c0-.45,0-.9-.01-1.34.12-.08.24-.17.35-.26,0,.62,0,1.24,0,1.86-.11-.09-.22-.17-.34-.26Z"/>
    <path class="cls-27" d="M189.61,248.33c.19.39.38.77.57,1.16-.19-.39-.38-.77-.57-1.16Z"/>
    <path class="cls-27" d="M191.96,251.83c.13.19.26.38.39.56-.13-.19-.26-.38-.39-.56Z"/>
    <path class="cls-27" d="M191.39,251.23c.19.2.38.4.58.61-.19-.2-.38-.4-.58-.61Z"/>
    <path class="cls-4" d="M247.08,358.07c0,1.53,0,3.05,0,4.58-1.83-2.71-3.65-5.42-5.48-8.13.09-.12.19-.23.28-.35,1.73,1.3,3.46,2.6,5.19,3.9Z"/>
    <path class="cls-4" d="M142.46,366.18c-2.84-1.51-3.21-3.53-3.14-5.64.02-.52.9-1.01,1.39-1.52.41.46,1.09.87,1.18,1.39.29,1.68.36,3.4.57,5.77Z"/>
    <path class="cls-24" d="M225.44,220.06c.39,2.13.85,4.26,1.15,6.4.15,1.11.03,2.25.03,3.44-2.86.25-4.3-.57-4.13-3.32.08-1.38.04-2.77.05-4.16,0-.38,0-.76,0-1.15v.02c1.07-.15.7-3.7,2.89-1.24Z"/>
    <path class="cls-10" d="M233.02,226.47c.02.26.03.52.05.78-.02-.26-.03-.52-.05-.78Z"/>
  </g>
</svg>