<?xml version="1.0" encoding="UTF-8"?>
<svg id="Capa_1" data-name="Capa 1" xmlns="http://www.w3.org/2000/svg" viewBox="0 0 11.23 11.23">
  <defs>
    <style>
      .cls-1 {
        fill: #9461c1;
      }

      .cls-1, .cls-2 {
        stroke-width: 0px;
      }

      .cls-2 {
        fill: #fff;
      }
    </style>
  </defs>
  <circle class="cls-2" cx="5.62" cy="5.62" r="5.62"/>
  <g>
    <rect class="cls-1" x="7.64" y="4.14" width="1.45" height="4.33" rx=".72" ry=".72"/>
    <rect class="cls-1" x="5.69" y="5.13" width="1.45" height="3.33" rx=".72" ry=".72"/>
    <rect class="cls-1" x="3.75" y="6.1" width="1.45" height="2.36" rx=".72" ry=".72"/>
    <rect class="cls-1" x="1.75" y="6.61" width="1.45" height="1.86" rx=".72" ry=".72"/>
    <g>
      <g>
        <line class="cls-1" x1="1.75" y1="5.84" x2="8.8" y2="2.86"/>
        <path class="cls-1" d="M1.75,5.84c.91-.6,2.47-1.15,3.48-1.6,1.03-.41,2.5-1.14,3.57-1.38-.92.6-2.47,1.15-3.48,1.6,0,0-1.76.74-1.76.74-.51.24-1.26.52-1.81.64h0Z"/>
      </g>
      <polygon class="cls-1" points="9.05 2.77 7.43 2.8 7.89 3.9 9.05 2.77"/>
    </g>
  </g>
</svg>