<?xml version="1.0" encoding="UTF-8"?>
<svg id="Capa_1" data-name="Capa 1" xmlns="http://www.w3.org/2000/svg" viewBox="0 0 11.23 11.23">
  <defs>
    <style>
      .cls-1 {
        fill: #88b2e3;
      }

      .cls-1, .cls-2 {
        stroke-width: 0px;
      }

      .cls-2 {
        fill: #fff;
      }
    </style>
  </defs>
  <circle class="cls-2" cx="5.62" cy="5.62" r="5.62"/>
  <g>
    <path class="cls-1" d="M3.91,4.58h2.66c.41,0,.75-.34.75-.75s-.34-.75-.75-.75h-2.66c-.41,0-.75.34-.75.75s.34.75.75.75ZM3.91,3.49h2.66c.19,0,.34.15.34.34s-.15.34-.34.34h-2.66c-.19,0-.34-.15-.34-.34s.15-.34.34-.34Z"/>
    <path class="cls-1" d="M3.91,6.4h2.66c.41,0,.75-.34.75-.75s-.34-.75-.75-.75h-2.66c-.41,0-.75.34-.75.75s.34.75.75.75ZM3.91,5.3h2.66c.19,0,.34.15.34.34s-.15.34-.34.34h-2.66c-.19,0-.34-.15-.34-.34s.15-.34.34-.34Z"/>
    <path class="cls-1" d="M3.98,7.57c-.36,0-.66.3-.66.66s.3.66.66.66.66-.3.66-.66-.3-.66-.66-.66Z"/>
    <circle class="cls-1" cx="7.24" cy="8.23" r=".66"/>
    <path class="cls-1" d="M9.42,2.79v-.07c-.04-.17-.09-.3-.37-.35-.25-.04-1.25-.01-1.36,0h-.15v4.21H3.5s-.04.03-.04.03c-.06.04-.6.39-.48.81l.03.11h5.56V3.21h.46s.25-.05.34-.19c.05-.07.06-.15.04-.23Z"/>
  </g>
</svg>