<?xml version="1.0" encoding="UTF-8"?><svg id="Capa_1" xmlns="http://www.w3.org/2000/svg" viewBox="0 0 94.76 87.83"><path fill="rgb(1,1,1)" d="m6.47,26.69l2.85-3.47c1.49,1.27,3.44,2.14,5.1,2.14,1.86,0,2.73-.7,2.73-1.83,0-1.21-1.15-1.61-2.96-2.37l-2.68-1.13c-2.2-.87-4.25-2.71-4.25-5.75,0-3.52,3.16-6.34,7.61-6.34,2.42,0,4.99.93,6.82,2.76l-2.51,3.16c-1.38-1.04-2.68-1.61-4.31-1.61-1.55,0-2.51.62-2.51,1.75s1.32,1.61,3.18,2.34l2.62,1.04c2.59,1.04,4.14,2.79,4.14,5.75,0,3.49-2.93,6.56-8,6.56-2.73,0-5.66-1.01-7.83-3.01Z"/><path class="cls-1" d="m36.48,13.42c-.68-.73-1.97-1.47-3.13-1.47-2.17,0-3.89,1.55-4.09,6.11,1.04-1.32,2.82-2.06,4-2.06,3.49,0,6.14,2.03,6.14,6.59s-3.16,7.1-6.9,7.1c-3.94,0-7.83-3.07-7.83-10.71s4-11.05,8.34-11.05c2.76,0,4.79,1.15,6.11,2.51l-2.65,2.96Zm-1.66,9.19c0-2.31-1.13-3.07-2.51-3.07-1.04,0-2.11.51-2.96,1.89.42,3.49,1.72,4.54,3.04,4.54s2.42-.99,2.42-3.35Z"/><path class="cls-1" d="m77.68,23.46c-5.95-5.79-13.8-8.98-22.1-8.98-3.35,0-6.65.52-9.8,1.54l-1.14-3.52c3.52-1.14,7.2-1.72,10.94-1.72,9.28,0,18.04,3.56,24.68,10.03l-2.58,2.65Z"/><path class="cls-1" d="m42.1,78.88c-13.31-5.49-21.91-18.33-21.91-32.73,0-4.17.72-8.26,2.14-12.15l3.47,1.27c-1.27,3.48-1.92,7.14-1.92,10.88,0,12.89,7.7,24.39,19.62,29.31l-1.41,3.42Z"/><path class="cls-1" d="m55.48,79.98c-2.02,0-4.04-.18-6.01-.53-3.93-.7-7.68-2.07-11.14-4.09l.6-1.03c3.34,1.94,6.95,3.27,10.75,3.94,1.9.34,3.85.51,5.8.51v1.19Z"/><path class="cls-1" d="m87.13,36.73c-1.93-6.7-5.86-12.52-11.38-16.84l.74-.94c5.72,4.47,9.8,10.51,11.8,17.45l-1.15.33Z"/><rect class="cls-1" x="57.5" y="52.14" width="10.47" height=".59"/><rect class="cls-1" x="57.5" y="50.41" width="10.47" height=".59"/><rect class="cls-1" x="57.5" y="53.86" width="6.97" height=".59"/><rect class="cls-1" x="57.5" y="48.65" width="6.97" height=".59"/><rect class="cls-1" x="65.36" y="53.86" width="2.61" height=".59"/><rect class="cls-1" x="65.36" y="45.13" width="2.61" height=".59"/><rect class="cls-1" x="57.5" y="55.55" width="10.47" height=".59"/><rect class="cls-1" x="57.5" y="59" width="10.47" height=".59"/><rect class="cls-1" x="61.43" y="57.28" width="6.54" height=".59"/><rect class="cls-1" x="57.5" y="57.28" width="3.04" height=".59"/><rect class="cls-1" x="57.5" y="60.73" width="1.75" height=".59"/><rect class="cls-1" x="60.14" y="60.73" width="7.86" height=".59"/><path class="cls-1" d="m71.29,39.57h-12.87c-1.2,0-2.18,1.1-2.18,2.45v.48c-1.2.62-2.06,2-2.06,3.59v15.36c0,2.17,1.6,3.97,3.53,3.97h10.14c1.51,0,2.8-1.07,3.29-2.55h.12c1.2,0,2.18-1.1,2.18-2.45v-18.4c.03-1.35-.95-2.45-2.15-2.45Zm-3.41,24.82h-10.14c-1.44,0-2.61-1.31-2.61-2.93v-15.36c0-1.62,1.17-2.93,2.61-2.93h10.14c1.44,0,2.61,1.31,2.61,2.93v15.36c0,1.62-1.2,2.93-2.61,2.93Zm4.67-3.97c0,.72-.49,1.35-1.14,1.42v-17.26c0-1.35-.98-2.45-2.18-2.45h-12.04v-.14c0-.79.55-1.42,1.26-1.42h12.87c.68,0,1.26.62,1.26,1.42v18.43h-.03Z"/><path class="cls-1" d="m44.56,58.56c-.06-.28-.31-.45-.55-.38s-.4.35-.34.62c.28,1.14.61,2.28,1.04,3.35.09.21.25.31.43.31.06,0,.12-.03.15-.03.25-.14.34-.41.25-.69-.4-1.04-.74-2.11-.98-3.18Z"/><path class="cls-1" d="m67.78,74.61c-.37.09-.74.16-1.11.23.09.33.14.68.14,1.04.39-.06.77-.14,1.16-.23.25-.07.43-.35.37-.62-.06-.28-.31-.48-.55-.41Z"/><path class="cls-1" d="m58.91,74.95c-.06.28.09.55.34.62.33.09.66.16.99.23,0-.36.06-.7.15-1.03-.31-.06-.62-.13-.93-.2-.25-.07-.49.1-.55.38Z"/><path class="cls-1" d="m72.85,72.6c-.89.52-1.81.97-2.76,1.31-.22.1-.37.38-.28.66.06.21.25.35.43.35.06,0,.09,0,.15-.03.98-.38,1.97-.83,2.89-1.38.21-.14.31-.45.18-.69-.12-.24-.4-.35-.61-.21Z"/><path class="cls-1" d="m57.1,73.85c-.92-.38-1.84-.86-2.73-1.38-.21-.14-.49-.03-.61.21-.12.24-.03.55.18.69.92.55,1.9,1.04,2.89,1.42.06.03.09.03.15.03.18,0,.37-.14.4-.31.09-.28-.03-.55-.28-.66Z"/><path class="cls-1" d="m77.28,69.08c-.74.76-1.51,1.48-2.33,2.11-.21.17-.28.48-.12.72.09.17.21.24.37.24.09,0,.18-.03.25-.1.86-.66,1.69-1.42,2.46-2.21.18-.17.18-.52.03-.72-.15-.21-.46-.24-.65-.03Z"/><path class="cls-1" d="m83.39,58.49c-.25-.1-.49.07-.55.35-.25,1.07-.61,2.14-1.01,3.18-.12.28-.03.59.22.69.06.03.12.03.18.03.15,0,.34-.1.4-.31.43-1.07.8-2.17,1.08-3.31.09-.28-.06-.55-.31-.62Z"/><path class="cls-1" d="m84,52.24c-.25,0-.46.24-.46.52v.07c0,1.14-.06,2.28-.21,3.38-.03.28.15.55.4.59h.06c.21,0,.4-.21.43-.45.15-1.17.25-2.35.25-3.52v-.07c0-.28-.21-.52-.46-.52Z"/><path class="cls-1" d="m52.03,34.74c.09,0,.18-.03.28-.1.83-.62,1.69-1.21,2.58-1.73.25-.14.34-.45.22-.69-.12-.28-.4-.38-.61-.24-.95.55-1.84,1.14-2.7,1.83-.22.17-.28.48-.12.72.09.14.21.21.37.21Z"/><path class="cls-1" d="m50,68.91c-.18-.21-.46-.21-.65,0s-.18.52,0,.72c.77.79,1.57,1.55,2.43,2.24.09.07.18.1.28.1.15,0,.28-.1.37-.21.12-.24.09-.55-.12-.72-.8-.62-1.6-1.35-2.3-2.14Z"/><path class="cls-1" d="m56.91,31.88h.18c.92-.38,1.9-.69,2.89-.9.25-.07.43-.35.37-.62-.06-.28-.31-.48-.55-.41-1.04.21-2.06.55-3.04.93-.25.1-.37.38-.28.66.06.21.25.35.43.35Z"/><path class="cls-1" d="m72.82,33.05c.89.52,1.75,1.1,2.55,1.76.09.07.18.1.28.1.15,0,.28-.07.37-.17.15-.24.12-.55-.09-.72-.83-.69-1.75-1.31-2.67-1.86-.21-.14-.49-.03-.61.21-.12.24-.03.55.18.69Z"/><path class="cls-1" d="m83.39,50.07c.03.24.25.45.46.45t.06-.03c.25-.03.43-.31.4-.59-.12-1.17-.34-2.31-.61-3.45-.09-.28-.34-.41-.58-.35-.25.1-.37.38-.31.66.28,1.07.46,2.21.58,3.31Z"/><path class="cls-1" d="m67.72,31.01c.98.24,1.97.55,2.89.93.06.03.09.03.15.03.21,0,.37-.14.43-.38.09-.24-.03-.55-.28-.66-.95-.41-2-.72-3.01-.97-.25-.03-.49.14-.55.41-.03.28.12.55.37.62Z"/><path class="cls-1" d="m50.43,36.36c.18-.17.21-.52.03-.72-.15-.21-.46-.24-.65-.03-.66.68-1.29,1.41-1.87,2.18.3.12.57.29.82.5.51-.67,1.08-1.31,1.66-1.92Z"/><path class="cls-1" d="m43.58,50.27h.06c.25,0,.43-.17.46-.41.12-1.14.34-2.24.61-3.31.06-.28-.06-.59-.31-.66-.25-.07-.52.07-.58.35-.28,1.14-.49,2.28-.65,3.45-.03.28.15.55.4.59Z"/><path class="cls-1" d="m44.1,55.9c-.12-1.04-.18-2.04-.18-3.07v-.31c0-.28-.21-.52-.46-.52s-.46.24-.46.52v.31c0,1.07.06,2.14.18,3.21.03.28.25.45.46.45h.06c.25-.03.43-.31.4-.59Z"/><path class="cls-1" d="m77.86,35.74c-.18-.17-.46-.17-.65.03-.15.21-.15.52.03.72.53.57,1.06,1.2,1.56,1.85.24-.22.51-.41.8-.54-.54-.73-1.12-1.42-1.74-2.06Z"/><path class="cls-1" d="m63.52,24.77c-2.21,0-4.02,2.04-4.02,4.52s1.81,4.52,4.02,4.52,4.02-2.04,4.02-4.52-1.78-4.52-4.02-4.52h0Zm0,8.21c-1.81,0-3.29-1.66-3.29-3.69s1.47-3.69,3.29-3.69,3.29,1.66,3.29,3.69-1.47,3.69-3.29,3.69h0Z"/><path class="cls-1" d="m64.19,28.29c-.18-.21-.37-.28-.58-.28-.25,0-.37.1-.37.35,0,.52,1.38.48,1.38,1.62,0,.59-.28,1.04-.83,1.17v.62h-.55v-.59c-.31-.03-.68-.21-.95-.45l.37-.62c.28.24.49.35.74.35.28,0,.4-.14.4-.38,0-.55-1.38-.59-1.38-1.66,0-.59.31-1,.8-1.1v-.62h.55v.62c.34.07.58.24.8.48l-.37.48Z"/><path class="cls-1" d="m63.52,71.33c-2.21,0-4.02,2.04-4.02,4.52s1.81,4.52,4.02,4.52,4.02-2.04,4.02-4.52-1.78-4.52-4.02-4.52h0Zm0,8.21c-1.81,0-3.29-1.66-3.29-3.69s1.47-3.69,3.29-3.69,3.29,1.66,3.29,3.69-1.47,3.69-3.29,3.69h0Z"/><path class="cls-1" d="m64.19,74.85c-.18-.21-.37-.28-.58-.28-.25,0-.37.1-.37.35,0,.52,1.38.48,1.38,1.62,0,.59-.28,1.04-.83,1.17v.62h-.55v-.59c-.31-.03-.68-.21-.95-.45l.37-.62c.28.24.49.35.74.35.28,0,.4-.14.4-.38,0-.55-1.38-.59-1.38-1.66,0-.59.31-1,.8-1.1v-.62h.55v.62c.34.07.58.24.8.48l-.37.48Z"/><path class="cls-1" d="m80.87,36.67c-2.21,0-4.02,2.04-4.02,4.52s1.81,4.52,4.02,4.52,4.02-2.04,4.02-4.52-1.81-4.52-4.02-4.52h0Zm0,8.21c-1.81,0-3.29-1.66-3.29-3.69s1.47-3.69,3.29-3.69,3.29,1.66,3.29,3.69-1.47,3.69-3.29,3.69h0Z"/><path class="cls-1" d="m81.55,40.19c-.18-.21-.37-.28-.58-.28-.25,0-.37.1-.37.35,0,.52,1.38.48,1.38,1.62,0,.59-.28,1.04-.83,1.17v.62h-.55v-.59c-.31-.03-.68-.21-.95-.45l.37-.62c.28.24.49.35.74.35.28,0,.4-.14.4-.38,0-.55-1.38-.59-1.38-1.66,0-.59.31-1,.8-1.1v-.62h.55v.62c.34.07.58.24.8.48l-.37.48Z"/><path class="cls-1" d="m46.71,36.73c-2.21,0-4.02,2.04-4.02,4.52s1.81,4.52,4.02,4.52,4.02-2.04,4.02-4.52-1.81-4.52-4.02-4.52h0Zm0,8.21c-1.81,0-3.29-1.66-3.29-3.69s1.47-3.69,3.29-3.69,3.29,1.66,3.29,3.69-1.47,3.69-3.29,3.69h0Z"/><path class="cls-1" d="m47.35,40.25c-.18-.17-.34-.28-.55-.28-.25,0-.37.1-.37.35,0,.52,1.38.48,1.38,1.62,0,.59-.28,1.04-.83,1.17v.62h-.55v-.59c-.31-.03-.68-.21-.95-.45l.4-.66c.28.24.49.35.74.35.28,0,.4-.14.4-.38,0-.55-1.38-.59-1.38-1.66,0-.59.31-1,.8-1.1v-.62h.55v.62c.34.07.58.24.8.48l-.43.52Z"/><path class="cls-1" d="m80.38,61.9c-2.21,0-4.02,2.04-4.02,4.52s1.81,4.52,4.02,4.52,4.02-2.04,4.02-4.52-1.78-4.52-4.02-4.52h0Zm0,8.21c-1.81,0-3.29-1.66-3.29-3.69s1.47-3.69,3.29-3.69,3.29,1.66,3.29,3.69c.03,2.04-1.44,3.69-3.29,3.69h0Z"/><path class="cls-1" d="m81.05,65.39c-.18-.21-.37-.28-.58-.28-.25,0-.37.1-.37.35,0,.52,1.38.48,1.38,1.62,0,.59-.28,1.04-.83,1.14v.62h-.55v-.59c-.31-.03-.68-.21-.95-.45l.37-.62c.28.24.49.35.74.35.28,0,.4-.14.4-.38,0-.55-1.38-.59-1.38-1.66,0-.59.31-1,.8-1.1v-.62h.55v.62c.34.07.58.24.8.48l-.37.52Z"/><path class="cls-1" d="m46.41,61.9c-2.21,0-4.02,2.04-4.02,4.52s1.81,4.52,4.02,4.52,4.02-2.04,4.02-4.52-1.81-4.52-4.02-4.52h0Zm0,8.21c-1.81,0-3.29-1.66-3.29-3.69s1.47-3.69,3.29-3.69,3.29,1.66,3.29,3.69-1.47,3.69-3.29,3.69h0Z"/><path class="cls-1" d="m47.05,65.39c-.18-.21-.37-.28-.58-.28-.25,0-.37.1-.37.35,0,.52,1.38.48,1.38,1.62,0,.59-.28,1.04-.83,1.14v.62h-.55v-.59c-.31-.03-.68-.21-.95-.45l.37-.62c.28.24.49.35.74.35.28,0,.4-.14.4-.38,0-.55-1.38-.59-1.38-1.66,0-.59.31-1,.8-1.1v-.62h.55v.62c.34.07.58.24.8.48l-.37.52Z"/></svg>