<?xml version="1.0" encoding="UTF-8"?>
<svg id="Capa_1" xmlns="http://www.w3.org/2000/svg" viewBox="0 0 11.23 11.23">
  <defs>
    <style>
      .cls-1 {
        fill: #fff;
      }

      .cls-2 {
        fill: #4cc9bd;
      }
    </style>
  </defs>
  <circle class="cls-1" cx="5.63" cy="5.59" r="5.62"/>
  <g>
    <path class="cls-2" d="M1.48,5.88c.07-.19.14-.39.33-.5.14-.08.3-.14.45-.15.3-.02.59,0,.89,0,.2,0,.37.08.52.22-.05.04-.09.07-.14.1-.42.29-.69.68-.79,1.18-.02.09-.05.13-.15.12-.2,0-.4-.01-.6,0-.25.01-.43-.08-.52-.32v-.65Z"/>
    <path class="cls-2" d="M9.63,6.53c-.09.24-.27.33-.52.32-.2-.01-.41,0-.62,0-.04,0-.12-.05-.12-.08-.11-.56-.41-.98-.89-1.28-.01,0-.02-.02-.04-.04.14-.14.31-.21.51-.22.3,0,.59,0,.89,0,.36,0,.65.24.75.58.01.04.02.07.03.11v.62Z"/>
    <path class="cls-2" d="M5.54,8.06c-.59,0-1.19,0-1.78,0-.39,0-.64-.25-.64-.64,0-.25,0-.5.06-.74.16-.63.77-1.08,1.42-1.06.06,0,.12.02.17.04.48.2.97.24,1.45.04.34-.14.64-.08.93.06.55.26.82.72.84,1.32,0,.16,0,.32-.01.47-.05.31-.28.51-.59.51-.62,0-1.23,0-1.85,0Z"/>
    <path class="cls-2" d="M5.55,5.2c-.8,0-1.41-.63-1.41-1.44,0-.78.64-1.4,1.44-1.4.79,0,1.4.63,1.4,1.43,0,.79-.63,1.41-1.43,1.41Z"/>
    <path class="cls-2" d="M1.9,3.98c0-.45.35-.8.8-.8.45,0,.81.35.82.81,0,.44-.37.82-.82.82-.45,0-.8-.36-.8-.82Z"/>
    <path class="cls-2" d="M9.22,4c0,.44-.36.81-.81.81-.45,0-.82-.38-.81-.84,0-.44.37-.79.82-.79.45,0,.8.36.8.82Z"/>
  </g>
</svg>