<?xml version="1.0" encoding="UTF-8"?>
<svg id="Capa_1" data-name="Capa 1" xmlns="http://www.w3.org/2000/svg" viewBox="0 0 11.23 11.23">
  <defs>
    <style>
      .cls-1 {
        fill: #895887;
      }

      .cls-1, .cls-2 {
        stroke-width: 0px;
      }

      .cls-2 {
        fill: #fff;
      }
    </style>
  </defs>
  <circle class="cls-2" cx="5.62" cy="5.62" r="5.62"/>
  <path class="cls-1" d="M9.31,4.23l-.12-.3c-.12-.29-.46-.43-.75-.31-.01,0-.02.02-.03.02h0s-.44.18-.44.18v-.6c0-.43-.37-.77-.83-.77h-3.43c-.46,0-.83.35-.83.77v4.77c0,.43.37.77.83.77h3.66l.6-.72v-2.64l-.32.14v2.39l-.43.51h-3.51c-.28,0-.51-.2-.51-.45V3.23c0-.25.23-.45.51-.45h3.43c.28,0,.51.2.51.45v.73l.14-.06-2.68,1.12v.02s-.06.03-.09.05l-.83.75c-.11.1-.15.26-.09.4.06.13.18.22.32.22,0,0,.01,0,.02,0l1.12-.07s.09-.02.14-.04h0s3.3-1.37,3.3-1.37c0,0,0,0,0,0,.14-.06.25-.17.31-.31.06-.14.06-.3,0-.44ZM5.53,6.07l-1.12.07-.02-.05.83-.75-.11-.12.09.08.02.04h.02s.03.02.03.02l.29.69.15-.06-.17.1ZM5.86,5.95s0-.02,0-.03l-.29-.69s-.02-.02-.02-.03l2.54-1.07c0,.08,0,.17.04.25l.12.3c.03.08.09.15.15.2l-2.54,1.07ZM8.88,4.68c-.12.05-.27,0-.32-.13l-.12-.29c-.05-.13,0-.27.13-.32.03-.01.06-.02.1-.02.1,0,.19.06.23.15l.12.3c.05.13,0,.27-.13.32Z"/>
</svg>