<?xml version="1.0" encoding="UTF-8"?>
<svg id="Capa_1" data-name="Capa 1" xmlns="http://www.w3.org/2000/svg" viewBox="0 0 11.23 11.23">
  <defs>
    <style>
      .cls-1 {
        fill: #5cadcf;
      }

      .cls-1, .cls-2 {
        stroke-width: 0px;
      }

      .cls-2 {
        fill: #fff;
      }
    </style>
  </defs>
  <circle class="cls-2" cx="5.62" cy="5.62" r="5.62"/>
  <path class="cls-1" d="M9.5,6.1v-1l-1.05-.42-.13-.31.42-1.12-.73-.68-1.03.39-.38-.16-.51-1h-.99l-.38,1-.44.17-1.04-.41-.76.72.47,1.08-.16.31-1.03.48v.99l1.1.38.2.47-.51.94.66.72,1.06-.4.44.15.45,1.04h1.03l.39-1.06.39-.13,1.06.4.73-.7-.44-1.1.11-.3,1.05-.45ZM5.63,6.96c-.76,0-1.37-.62-1.37-1.37s.62-1.37,1.37-1.37,1.37.62,1.37,1.37-.62,1.37-1.37,1.37Z"/>
</svg>