<?xml version="1.0" encoding="UTF-8"?>
<svg id="Capa_1" data-name="Capa 1" xmlns="http://www.w3.org/2000/svg" viewBox="0 0 11.23 11.23">
  <defs>
    <style>
      .cls-1 {
        fill: #fff;
      }

      .cls-1, .cls-2 {
        stroke-width: 0px;
      }

      .cls-2 {
        fill: #3087c7;
      }
    </style>
  </defs>
  <circle class="cls-1" cx="5.62" cy="5.62" r="5.62"/>
  <path class="cls-2" d="M9.1,3.37l-1.13-1.13c-.33-.33-.87-.33-1.21,0l-.08.08c-.25.26-.31.63-.18.94-.61.22-1.2.54-1.64,1.04-.24.28-.43.6-.59.93h0c-.51.46-.92.58-1.08.61-.16-.21-.4-.34-.68-.34h-.11c-.47,0-.85.38-.85.85v1.59c0,.47.38.85.85.85h.11c.27,0,.51-.13.66-.32.07.04.19.08.39.11.07.2.25.35.48.35h.06c.11,0,.2-.04.29-.1.05.18.21.32.41.32h.05c.16,0,.3-.09.37-.23.05.18.21.31.41.31h.05c.22,0,.4-.17.42-.39.08.08.19.13.31.13h.12c.2,0,.36-.14.41-.33,0,0,.02,0,.05,0,.1,0,.29-.02.42-.15.06-.07.12-.18.09-.38,0-.06-.01-.21-.14-.33.15.01.3.01.45-.02.31-.11.4-.54.18-.77.24-.1.39-.42.25-.67-.06-.11-.16-.2-.28-.24.08-.1.14-.22.13-.37,0-.07-.04-.13-.08-.19h.03s.23-.65.23-.65c.05,0,.09.01.14.01.22,0,.44-.08.6-.25l.08-.08c.33-.33.33-.87,0-1.21ZM3,7.94c0,.27-.22.49-.49.49h-.11c-.27,0-.49-.22-.49-.49v-1.59c0-.27.22-.49.49-.49h.11c.27,0,.49.22.49.49v1.59ZM3.3,8.36l-.04-.02s.03-.04.04-.07c0,.02.01.05,0,.08ZM4.11,8.69h-.06c-.15,0-.26-.12-.26-.26v-.71c0-.15.12-.26.26-.26h.06c.15,0,.26.12.26.26v.71c0,.15-.12.26-.26.26ZM5.05,8.72c0,.1-.08.19-.19.19h-.05c-.1,0-.19-.08-.19-.19v-.82c0-.1.08-.19.19-.19h.05c.1,0,.19.08.19.19v.82ZM5.88,8.81c0,.1-.08.19-.19.19h-.05c-.1,0-.19-.08-.19-.19v-.77c0-.1.08-.19.19-.19h.05c.1,0,.19.08.19.19v.77ZM6.73,8.55c0,.1-.08.19-.19.19h-.12c-.1,0-.19-.08-.19-.19v-.52c0-.1.08-.19.19-.19h.12c.1,0,.19.08.19.19v.52ZM7.24,8.34c-.06.07-.21.08-.26.07v-.38s-.01-.08-.02-.11c.11,0,.2,0,.25.05.07.06.06.15.06.15v.02s0,.02,0,.02c.02.12-.01.16-.03.18ZM7.85,6.08c-.4.01-.77.04-1.17.11.38.07.77.1,1.15.12.09,0,.17.07.21.14.09.28-.08.37-.31.41-.28-.06-.59.06-.87.09.24.05.48.07.72.09.32,0,.41.4.15.52-.26.06-.61.06-.92.12,0,0-.02,0-.03,0-.07-.05-.15-.09-.24-.09h-.12c-.16,0-.29.09-.37.22-.08-.13-.21-.22-.37-.22h-.05c-.16,0-.29.09-.37.22-.04-.2-.21-.35-.42-.35h-.05c-.08,0-.16.03-.22.07-.07-.2-.26-.34-.48-.34h-.06c-.28,0-.51.23-.51.51v.61c-.13-.03-.2-.05-.23-.07.04-.1.06-.21.06-.32v-1.59c0-.1-.02-.2-.05-.29.17-.04.44-.14.77-.38-.05.14-.1.28-.15.43.03.21.11.42.33.52.22.08.45-.02.61-.15l.72-1.01c.7,0,1.41,0,2.11,0,.13.05.25.16.27.28.02.11-.03.23-.1.33,0,0-.02,0-.02,0ZM7.87,5.38s-.1-.06-.15-.08c-.4-.02-.81-.03-1.21-.04.18-.09.29-.31.15-.48-.16.21-.26.25-.37.48-.27,0-.54-.02-.81-.02l-.04.05-.75,1.03c-.12.08-.25.13-.34.1-.09-.03-.16-.16-.18-.29.06-.24.15-.48.25-.7,0,0,.01-.01.02-.02h0c.41-.95,1.11-1.71,2.09-2.13.04.09.1.18.18.26l1.13,1.13c.12.12.26.19.42.23l-.36.5ZM8.84,4.32l-.08.08c-.19.19-.5.19-.69,0l-1.13-1.13c-.19-.19-.19-.5,0-.69l.08-.08c.09-.09.22-.14.34-.14s.25.05.34.14l1.13,1.13c.19.19.19.5,0,.69Z"/>
</svg>