<?xml version="1.0" encoding="UTF-8"?>
<svg id="Capa_2" data-name="Capa 2" xmlns="http://www.w3.org/2000/svg" version="1.1" viewBox="0 0 150 54">
  <defs>
    <style>
      .cls-1 {
        fill: #c8b5c7;
      }

      .cls-1, .cls-2, .cls-3 {
        stroke-width: 0px;
      }

      .cls-2 {
        fill: #764477;
      }

      .cls-3 {
        fill: #5d5b5c;
      }
    </style>
  </defs>
  <g id="Capa_1-2" data-name="Capa 1-2">
    <g>
      <path class="cls-2" d="M-254.6,209.6c0,.8-.2,1.4-.7,1.8s-1.2.6-2,.6h-.6v2.5h-1.5v-7.2h2.3c.9,0,1.5.2,2,.6s.7.9.7,1.7h-.2ZM-258,210.7h.5c.5,0,.8,0,1-.3s.3-.5.3-.8,0-.6-.3-.8c-.2-.2-.5-.2-.9-.2h-.7v2.1h.1Z"/>
      <path class="cls-2" d="M-251.9,214.5h-1.5v-7.6h1.5v7.6Z"/>
      <path class="cls-2" d="M-246.8,214.5l-.3-.7h0c-.2.3-.5.5-.8.7-.3.1-.6.2-1,.2s-.9-.2-1.2-.5-.4-.7-.4-1.3.2-1,.6-1.3c.4-.3,1-.4,1.8-.5h.9v-.3c0-.5-.3-.8-.9-.8s-.9.1-1.5.4l-.5-1c.6-.3,1.3-.5,2.1-.5s1.3.2,1.7.5.6.8.6,1.5v3.6h-1.1ZM-247.3,212h-.6c-.4,0-.8.1-1,.2s-.3.4-.3.7.2.6.7.6.6,0,.8-.3.3-.5.3-.8v-.5h.1Z"/>
      <path class="cls-2" d="M-242,213.4c.3,0,.6,0,.9-.2v1.1c-.4.2-.8.2-1.4.2s-1-.2-1.3-.5-.4-.8-.4-1.4v-2.6h-.7v-.6l.8-.5.4-1.2h1v1.2h1.5v1.1h-1.5v2.6c0,.2,0,.4.2.5.1,0,.3.2.5.2h0Z"/>
      <path class="cls-2" d="M-236.5,214.5l-.3-.7h0c-.2.3-.5.5-.8.7-.3.1-.6.2-1,.2s-.9-.2-1.2-.5-.5-.7-.5-1.3.2-1,.6-1.3c.4-.3,1-.4,1.8-.5h1v-.3c0-.5-.3-.8-.9-.8s-1,.1-1.5.4l-.5-1c.6-.3,1.3-.5,2.1-.5s1.3.2,1.7.5.6.8.6,1.5v3.6h-1.1ZM-236.9,212h-.6c-.4,0-.8.1-1,.2s-.3.4-.3.7.2.6.7.6.6,0,.8-.3.3-.5.3-.8v-.5h.1Z"/>
      <path class="cls-2" d="M-230.9,210.2h-1.3v4.3h-1.5v-4.3h-.8v-.7l.8-.4v-.4c0-.6.1-1.1.5-1.4.3-.3.8-.4,1.5-.4s1,0,1.4.2l-.4,1.1c-.3,0-.6-.1-.8-.1s-.4,0-.5.2c0,.1-.1.3-.1.5v.3h1.3v1.1h0Z"/>
      <path class="cls-2" d="M-225,211.8c0,.9-.2,1.6-.7,2.1s-1.1.8-2,.8-1-.1-1.4-.3c-.4-.2-.7-.6-.9-1s-.3-.9-.3-1.5c0-.9.2-1.6.7-2.1s1.1-.7,2-.7,1,.1,1.4.3c.4.2.7.6.9,1s.3.9.3,1.5h0ZM-228.8,211.8c0,.5,0,1,.3,1.2s.5.4.9.4.7-.1.9-.4.3-.7.3-1.2,0-1-.3-1.2-.5-.4-.9-.4-.7.1-.9.4-.3.7-.3,1.2h0Z"/>
      <path class="cls-2" d="M-220.8,209h.5v1.4h-.5c-.5,0-.8.1-1.1.4-.3.2-.4.6-.4,1v2.8h-1.5v-5.5h1.1l.2.9h0c.2-.3.4-.5.7-.7s.6-.3.9-.3h.1Z"/>
      <path class="cls-2" d="M-214.4,214.5h-1.5v-3.2c0-.4,0-.7-.2-.9s-.3-.3-.6-.3-.7.1-.8.4-.3.7-.3,1.4v2.6h-1.5v-5.5h1.1l.2.7h0c.2-.2.4-.5.6-.6.3-.1.6-.2,1-.2.8,0,1.4.3,1.7.8h.1c.2-.2.4-.5.7-.6s.6-.2,1-.2c.6,0,1.1.2,1.4.5s.5.8.5,1.5v3.6h-1.5v-3.2c0-.4,0-.7-.2-.9s-.3-.3-.6-.3-.6.1-.8.4-.3.7-.3,1.2v2.7h0Z"/>
      <path class="cls-2" d="M-206,214.5l-.3-.7h0c-.2.3-.5.5-.8.7s-.6.2-1,.2-.9-.2-1.2-.5-.5-.7-.5-1.3.2-1,.6-1.3c.4-.3,1-.4,1.8-.5h1v-.3c0-.5-.3-.8-.8-.8s-1,.1-1.5.4l-.5-1c.6-.3,1.3-.5,2.1-.5s1.3.2,1.7.5.6.8.6,1.5v3.6h-1.2ZM-206.4,212h-.6c-.4,0-.8.1-1,.2s-.3.4-.3.7.2.6.7.6.6,0,.8-.3c.2-.2.3-.5.3-.8v-.5h.1Z"/>
      <path class="cls-2" d="M-194.7,210.9c0,1.2-.3,2.1-1,2.7s-1.6.9-2.9.9h-2v-7.2h2.2c1.2,0,2.1.3,2.7.9.7.6,1,1.5,1,2.6h0ZM-196.3,210.9c0-1.5-.7-2.3-2-2.3h-.8v4.7h.7c1.5,0,2.2-.8,2.2-2.4h0Z"/>
      <path class="cls-2" d="M-193.4,207.6c0-.5.3-.7.8-.7s.8.2.8.7,0,.4-.2.5-.3.2-.6.2c-.5,0-.8-.2-.8-.7h0ZM-191.9,214.5h-1.5v-5.5h1.5v5.5Z"/>
      <path class="cls-2" d="M-185.6,209v.8l-.9.2c.2.2.2.5.2.8,0,.6-.2,1-.6,1.4s-1,.5-1.7.5h-.5c-.2,0-.2.2-.2.3,0,.2.3.3.8.3h.9c.6,0,1.1.1,1.4.4.3.3.5.6.5,1.1s-.3,1.1-.8,1.5c-.5.3-1.3.5-2.3.5s-1.3-.1-1.8-.4-.6-.6-.6-1.1,0-.6.3-.8.5-.4.9-.5c-.2,0-.3-.2-.4-.3s-.2-.3-.2-.5,0-.4.2-.5.3-.3.5-.4c-.3-.1-.5-.3-.7-.6s-.2-.6-.2-1c0-.6.2-1.1.6-1.4.4-.3.9-.5,1.7-.5s.3,0,.5,0h2.3v.2ZM-189.8,215.3c0,.2,0,.4.3.5.2.1.5.2.8.2.5,0,.9,0,1.3-.2.3-.2.4-.3.4-.6s0-.3-.3-.4-.5-.1-.8-.1h-.8c-.3,0-.5,0-.7.2s-.3.3-.3.5h.1ZM-189.2,210.8c0,.3,0,.5.2.7.1.2.3.3.6.3s.5,0,.6-.3c.1-.2.2-.4.2-.7,0-.7-.3-1-.8-1s-.8.3-.8,1h0Z"/>
      <path class="cls-2" d="M-184.7,207.6c0-.5.3-.7.8-.7s.8.2.8.7,0,.4-.2.5c-.1.1-.3.2-.6.2-.5,0-.8-.2-.8-.7h0ZM-183.2,214.5h-1.5v-5.5h1.5v5.5Z"/>
      <path class="cls-2" d="M-179.3,213.4c.3,0,.6,0,.9-.2v1.1c-.4.2-.8.2-1.4.2s-1-.2-1.3-.5-.4-.8-.4-1.4v-2.6h-.7v-.6l.8-.5.4-1.2h.9v1.2h1.5v1.1h-1.5v2.6c0,.2,0,.4.2.5.1,0,.3.2.5.2h.1Z"/>
      <path class="cls-2" d="M-173.8,214.5l-.3-.7h0c-.2.3-.5.5-.8.7s-.6.2-1,.2-.9-.2-1.2-.5-.4-.7-.4-1.3.2-1,.6-1.3c.4-.3,1-.4,1.8-.5h.9v-.3c0-.5-.3-.8-.8-.8s-.9.1-1.5.4l-.5-1c.6-.3,1.3-.5,2.1-.5s1.3.2,1.7.5.6.8.6,1.5v3.6h-1.2ZM-174.2,212h-.6c-.4,0-.8.1-1,.2s-.3.4-.3.7.2.6.7.6.6,0,.8-.3.3-.5.3-.8v-.5h.1Z"/>
      <path class="cls-2" d="M-169.7,214.5h-1.5v-7.6h1.5v7.6Z"/>
      <path class="cls-2" d="M-159.1,214.5h-1.9l-3.1-5.4h0v5.4h-1.3v-7.2h1.9l3.1,5.3h0v-5.4h1.4v7.2h0Z"/>
      <path class="cls-2" d="M-153.9,214.5l-.3-.7h0c-.2.3-.5.5-.8.7s-.6.2-1,.2-.9-.2-1.2-.5-.4-.7-.4-1.3.2-1,.6-1.3c.4-.3,1-.4,1.8-.5h.9v-.3c0-.5-.3-.8-.8-.8s-.9.1-1.5.4l-.5-1c.6-.3,1.3-.5,2.1-.5s1.3.2,1.7.5.6.8.6,1.5v3.6h-1.2ZM-154.4,212h-.6c-.4,0-.8.1-1,.2s-.3.4-.3.7.2.6.7.6.6,0,.8-.3.3-.5.3-.8v-.5h.1Z"/>
      <path class="cls-2" d="M-149.1,214.6c-1.7,0-2.6-.9-2.6-2.8s.2-1.6.7-2.1,1.1-.7,2-.7,1.2.1,1.7.4l-.4,1.2c-.2,0-.4-.2-.7-.2h-.6c-.8,0-1.2.5-1.2,1.7s.4,1.6,1.2,1.6.6,0,.8-.1c.2,0,.5-.2.7-.4v1.3c-.2.2-.5.3-.7.3h-.9v-.2Z"/>
      <path class="cls-2" d="M-146.3,207.6c0-.5.3-.7.8-.7s.8.2.8.7,0,.4-.2.5c-.1.1-.3.2-.6.2-.5,0-.8-.2-.8-.7h0ZM-144.7,214.5h-1.5v-5.5h1.5v5.5Z"/>
      <path class="cls-2" d="M-138.2,211.8c0,.9-.2,1.6-.7,2.1s-1.1.8-2,.8-1-.1-1.4-.3c-.4-.2-.7-.6-.9-1s-.3-.9-.3-1.5c0-.9.2-1.6.7-2.1s1.1-.7,2-.7,1,.1,1.4.3.7.6.9,1,.3.9.3,1.5h0ZM-142,211.8c0,.5,0,1,.3,1.2s.5.4.9.4.7-.1.9-.4.3-.7.3-1.2,0-1-.3-1.2c-.2-.3-.5-.4-.9-.4s-.7.1-.9.4-.3.7-.3,1.2h0Z"/>
      <path class="cls-2" d="M-131.9,214.5h-1.5v-3.2c0-.4,0-.7-.2-.9s-.4-.3-.7-.3-.7.1-.9.4-.3.7-.3,1.4v2.6h-1.5v-5.5h1.1l.2.7h0c.2-.3.4-.5.7-.6s.6-.2,1-.2c.6,0,1.1.2,1.4.5.3.3.5.8.5,1.5v3.6h.2Z"/>
      <path class="cls-2" d="M-126.9,214.5l-.3-.7h0c-.2.3-.5.5-.8.7-.3.1-.6.2-1,.2s-.9-.2-1.2-.5-.4-.7-.4-1.3.2-1,.6-1.3c.4-.3,1-.4,1.8-.5h.9v-.3c0-.5-.3-.8-.9-.8s-.9.1-1.5.4l-.5-1c.6-.3,1.3-.5,2.1-.5s1.3.2,1.7.5.6.8.6,1.5v3.6h-1.1ZM-127.4,212h-.6c-.4,0-.8.1-1,.2s-.3.4-.3.7.2.6.7.6.6,0,.8-.3.3-.5.3-.8v-.5h0Z"/>
      <path class="cls-2" d="M-122.9,214.5h-1.5v-7.6h1.5v7.6Z"/>
    </g>
    <g>
      <path class="cls-3" d="M-259.6,224.4v-5.8h.7v5.8h-.7Z"/>
      <path class="cls-3" d="M-254.5,224.4v-2.8c0-.4,0-.6-.2-.8s-.4-.3-.8-.3-.8.1-1,.4c-.2.2-.3.7-.3,1.2v2.3h-.7v-4.4h.5v.6h.1c.1-.2.3-.4.6-.5.2-.1.5-.2.8-.2.5,0,.9.1,1.2.4s.4.7.4,1.2v2.9h-.7,0Z"/>
      <path class="cls-3" d="M-251,223.9h.6v.5h-.7c-.8,0-1.3-.4-1.3-1.3v-2.6h-.6v-.3l.6-.3.3-.9h.4v1h1.3v.5h-1.3v2.6c0,.3,0,.5.2.6.1.1.3.2.5.2h0Z"/>
      <path class="cls-3" d="M-247.7,224.5c-.6,0-1.2-.2-1.5-.6-.4-.4-.6-.9-.6-1.6s.2-1.3.5-1.7c.4-.4.8-.6,1.4-.6s1,.2,1.3.5.5.8.5,1.4v.4h-3c0,.5.1.9.4,1.2.2.3.6.4,1,.4s.9,0,1.4-.3v.6c-.2,0-.5.2-.7.2h-.8.1ZM-247.9,220.5c-.4,0-.6.1-.8.3s-.3.5-.4,1h2.3c0-.4,0-.7-.3-1-.2-.2-.4-.3-.8-.3Z"/>
      <path class="cls-3" d="M-244.3,224.4h-.7v-6.2h.7v6.2Z"/>
      <path class="cls-3" d="M-242.9,218.8c0-.2,0-.3.1-.3,0,0,.2-.1.3-.1s.2,0,.3.1.1.2.1.3,0,.3-.1.3-.2.1-.3.1-.2,0-.3-.1c0,0-.1-.2-.1-.3ZM-242.2,224.4h-.7v-4.4h.7v4.4Z"/>
      <path class="cls-3" d="M-237.2,220v.4h-.8c0,.2.1.3.2.5v.5c0,.4-.1.8-.4,1s-.7.4-1.2.4-.2,0-.4,0c-.3.2-.4.3-.4.6s0,.2.1.3.3,0,.5,0h.8c.5,0,.8,0,1.1.3s.4.5.4.9-.2.9-.6,1.1-1,.4-1.7.4-1-.1-1.3-.3-.5-.5-.5-.9,0-.5.3-.7c.2-.2.4-.3.7-.4-.1,0-.2-.1-.3-.2,0-.1-.1-.2-.1-.4s0-.3.1-.4c0-.1.2-.2.4-.3-.2,0-.4-.2-.5-.5-.1-.2-.2-.5-.2-.8,0-.5.1-.8.4-1.1.3-.3.7-.4,1.2-.4h2.2ZM-240.7,225.1c0,.2.1.4.3.5s.5.2.9.2c.6,0,1,0,1.2-.2s.4-.4.4-.7,0-.4-.2-.5-.4-.1-.8-.1h-.8c-.3,0-.5,0-.7.2-.2.1-.2.3-.2.6h0ZM-240.3,221.4c0,.3,0,.5.3.7s.4.2.7.2c.6,0,1-.3,1-.9s-.3-1-1-1-.5,0-.7.2-.2.4-.2.8h-.1Z"/>
      <path class="cls-3" d="M-234.5,224.5c-.6,0-1.2-.2-1.5-.6-.4-.4-.6-.9-.6-1.6s.2-1.3.5-1.7c.4-.4.8-.6,1.4-.6s1,.2,1.3.5.5.8.5,1.4v.4h-3c0,.5.1.9.4,1.2.2.3.6.4,1,.4s.9,0,1.4-.3v.6c-.2,0-.5.2-.7.2h-.8.1ZM-234.6,220.5c-.4,0-.6.1-.8.3-.2.2-.3.5-.4,1h2.3c0-.4,0-.7-.3-1-.2-.2-.5-.3-.8-.3Z"/>
      <path class="cls-3" d="M-228.7,224.4v-2.8c0-.4,0-.6-.2-.8s-.4-.3-.8-.3-.8.1-1,.4c-.2.2-.3.7-.3,1.2v2.3h-.7v-4.4h.5v.6h.1c.1-.2.3-.4.6-.5.2-.1.5-.2.8-.2.5,0,.9.1,1.2.4s.4.7.4,1.2v2.9h-.7,0Z"/>
      <path class="cls-3" d="M-224.9,224.5c-.6,0-1.1-.2-1.5-.6-.3-.4-.5-.9-.5-1.7s.2-1.3.5-1.7.9-.6,1.5-.6h.6c.2,0,.4,0,.5.2l-.2.6c-.2,0-.3-.1-.5-.2s-.3,0-.5,0c-.9,0-1.3.6-1.3,1.7s.1,1,.3,1.2.5.4,1,.4.7,0,1.1-.2v.6c-.3.2-.7.2-1.1.2h0Z"/>
      <path class="cls-3" d="M-222.8,218.8c0-.2,0-.3.1-.3,0,0,.2-.1.3-.1s.2,0,.3.1.1.2.1.3,0,.3-.1.3-.2.1-.3.1-.2,0-.3-.1c0,0-.1-.2-.1-.3ZM-222.1,224.4h-.7v-4.4h.7v4.4Z"/>
      <path class="cls-3" d="M-218,224.4v-.6h-.2c-.2.3-.4.5-.7.6-.2,0-.5.2-.8.2s-.8-.1-1-.3-.4-.5-.4-1c0-.9.7-1.3,2.1-1.4h.7v-.3c0-.3,0-.6-.2-.8s-.4-.2-.7-.2-.8.1-1.2.3l-.2-.5c.2-.1.5-.2.7-.3s.5,0,.8,0c.5,0,.9.1,1.2.3s.4.6.4,1.1v3h-.5ZM-219.5,223.9c.4,0,.7-.1,1-.3s.3-.5.3-1v-.4h-.7c-.5,0-.9.1-1.1.3s-.3.4-.3.7,0,.4.2.5.3.2.6.2h0Z"/>
      <path class="cls-3" d="M-211,223.8h0c-.3.5-.8.7-1.4.7s-1-.2-1.3-.6-.5-1-.5-1.7.2-1.3.5-1.7.8-.6,1.3-.6,1,.2,1.4.7h0v-2.4h.7v6.2h-.5v-.6h-.2ZM-212.4,223.9c.5,0,.8-.1,1-.4.2-.2.3-.6.3-1.2h0c0-.8,0-1.2-.3-1.5-.2-.3-.5-.4-1-.4s-.7.2-.9.5-.3.7-.3,1.3,0,1,.3,1.3c.2.3.5.4.9.4h0Z"/>
      <path class="cls-3" d="M-207.2,224.5c-.7,0-1.2-.2-1.5-.6-.4-.4-.6-.9-.6-1.6s.2-1.3.5-1.7c.3-.4.8-.6,1.4-.6s1,.2,1.3.5.5.8.5,1.4v.4h-3c0,.5.1.9.4,1.2.2.3.6.4,1,.4s.9,0,1.4-.3v.6c-.2,0-.5.2-.7.2h-.8.1ZM-207.3,220.5c-.3,0-.6.1-.8.3s-.3.5-.4,1h2.3c0-.4,0-.7-.3-1-.2-.2-.5-.3-.8-.3Z"/>
      <path class="cls-3" d="M-197.5,221.4c0,1-.3,1.7-.8,2.2s-1.3.8-2.3.8h-1.6v-5.8h1.8c.9,0,1.6.2,2.1.8s.8,1.2.8,2.1h0ZM-198.2,221.4c0-.8-.2-1.3-.6-1.7-.4-.4-1-.6-1.7-.6h-1v4.7h.8c.8,0,1.4-.2,1.8-.6.4-.4.6-1,.6-1.8h0Z"/>
      <path class="cls-3" d="M-193.6,224.4v-.6h-.2c-.2.3-.4.5-.7.6-.2,0-.5.2-.8.2s-.8-.1-1-.3-.4-.5-.4-1c0-.9.7-1.3,2.1-1.4h.7v-.3c0-.3,0-.6-.2-.8s-.4-.2-.7-.2-.8.1-1.2.3l-.2-.5c.2-.1.5-.2.7-.3h.8c.5,0,.9.1,1.2.3s.4.6.4,1.1v3h-.5ZM-195.1,223.9c.4,0,.7-.1,1-.3s.3-.5.3-1v-.4h-.7c-.5,0-.9.1-1.1.3s-.3.4-.3.7,0,.4.2.5.3.2.6.2h0Z"/>
      <path class="cls-3" d="M-190.3,223.9h.6v.5h-.7c-.8,0-1.3-.4-1.3-1.3v-2.6h-.6v-.3l.6-.3.3-.9h.4v1h1.3v.5h-1.3v2.6c0,.3,0,.5.2.6.1.1.3.2.5.2h0Z"/>
      <path class="cls-3" d="M-185.1,222.2c0,.7-.2,1.3-.5,1.7s-.9.6-1.5.6-.7,0-1-.3c-.3-.2-.5-.5-.7-.8s-.2-.8-.2-1.2c0-.7.2-1.3.5-1.7.4-.4.8-.6,1.5-.6s1.1.2,1.5.6.5,1,.5,1.7h-.1ZM-188.4,222.2c0,.6.1,1,.3,1.3s.6.4,1,.4.8-.2,1-.4.3-.7.3-1.3-.1-1-.3-1.3-.6-.4-1-.4-.8.1-1,.4-.3.7-.3,1.3h0Z"/>
      <path class="cls-3" d="M-181.1,223.2c0,.4-.2.7-.5.9-.3.2-.7.3-1.3.3s-1,0-1.4-.3v-.6c.2.1.4.2.7.2h.7c.3,0,.6,0,.8-.2s.3-.3.3-.5,0-.3-.2-.4-.4-.3-.9-.4c-.4-.2-.7-.3-.9-.4s-.3-.2-.4-.4c0-.1-.1-.3-.1-.5,0-.4.2-.6.4-.8s.7-.3,1.2-.3.9,0,1.4.3l-.2.5c-.4-.2-.8-.3-1.2-.3s-.6,0-.7.2-.2.2-.2.4v.3s.2.2.3.2.4.2.8.3c.5.2.9.4,1.1.6s.3.4.3.7h0v.2Z"/>
      <path class="cls-3" d="M-174.1,224.4l-.7-1.9h-2.3l-.7,1.9h-.7l2.3-5.9h.6l2.3,5.9h-.8ZM-175,221.9l-.7-1.8c0-.2-.2-.5-.3-.8,0,.3-.1.5-.2.8l-.7,1.8h1.9Z"/>
      <path class="cls-3" d="M-169.7,224.4v-2.8c0-.4,0-.6-.2-.8-.2-.2-.4-.3-.8-.3s-.8.1-1,.4c-.2.2-.3.7-.3,1.2v2.3h-.7v-4.4h.5v.6h.1c.1-.2.3-.4.6-.5.2-.1.5-.2.8-.2.5,0,.9.1,1.2.4.3.2.4.7.4,1.2v2.9h-.7,0Z"/>
      <path class="cls-3" d="M-166.3,223.9h.6v.5h-.7c-.8,0-1.3-.4-1.3-1.3v-2.6h-.6v-.3l.6-.3.3-.9h.4v1h1.3v.5h-1.3v2.6c0,.3,0,.5.2.6s.3.2.5.2h0Z"/>
      <path class="cls-3" d="M-164.8,218.8c0-.2,0-.3.1-.3,0,0,.2-.1.3-.1s.2,0,.3.1.1.2.1.3,0,.3-.1.3-.2.1-.3.1-.2,0-.3-.1c0,0-.1-.2-.1-.3ZM-164.1,224.4h-.7v-4.4h.7v4.4Z"/>
      <path class="cls-3" d="M-161,224.5c-.6,0-1.1-.2-1.5-.6-.3-.4-.5-.9-.5-1.7s.2-1.3.5-1.7.9-.6,1.5-.6h.6c.2,0,.4,0,.5.2l-.2.6c-.2,0-.3-.1-.5-.2h-.5c-.9,0-1.3.6-1.3,1.7s.1,1,.3,1.2.5.4,1,.4.7,0,1.1-.2v.6c-.3.2-.7.2-1.1.2h0Z"/>
      <path class="cls-3" d="M-155,222.2c0,.7-.2,1.3-.5,1.7s-.9.6-1.5.6-.7,0-1-.3c-.3-.2-.5-.5-.7-.8s-.2-.8-.2-1.2c0-.7.2-1.3.5-1.7.4-.4.8-.6,1.5-.6s1.1.2,1.5.6.5,1,.5,1.7h-.1ZM-158.4,222.2c0,.6.1,1,.3,1.3s.6.4,1,.4.8-.2,1-.4.3-.7.3-1.3-.1-1-.3-1.3-.6-.4-1-.4-.8.1-1,.4-.3.7-.3,1.3h0Z"/>
      <path class="cls-3" d="M-151.9,219.9h.5v.6h-.6c-.3,0-.7.1-.9.4s-.4.7-.4,1.1v2.4h-.7v-4.4h.6v.8h.1c.2-.3.4-.5.6-.7s.5-.2.8-.2h0Z"/>
      <path class="cls-3" d="M-148.5,219.9h.5v.6h-.6c-.3,0-.7.1-.9.4s-.4.7-.4,1.1v2.4h-.7v-4.4h.6v.8h.1c.2-.3.4-.5.6-.7s.5-.2.8-.2h0Z"/>
      <path class="cls-3" d="M-146.6,220v2.8c0,.4,0,.6.2.8.2.2.4.3.8.3s.8-.1,1-.4c.2-.2.3-.7.3-1.2v-2.3h.7v4.4h-.6v-.6h-.1c-.1.2-.3.4-.6.5-.2.1-.5.2-.8.2-.5,0-.9-.1-1.2-.4-.3-.2-.4-.7-.4-1.2v-2.9h.7Z"/>
      <path class="cls-3" d="M-140.1,224.5c-.3,0-.6,0-.8-.2-.2-.1-.4-.3-.6-.5h0v2.5h-.7v-6.3h.5v.6h.1c.2-.2.4-.4.6-.5s.5-.2.8-.2c.6,0,1,.2,1.3.6s.5,1,.5,1.7-.2,1.3-.5,1.7-.8.6-1.3.6h0ZM-140.2,220.5c-.4,0-.8.1-1,.4s-.3.6-.3,1.2v.2c0,.6,0,1.1.3,1.3s.5.4,1,.4.7-.2.9-.5.3-.7.3-1.3-.1-1-.3-1.3-.5-.4-.9-.4h0Z"/>
      <path class="cls-3" d="M-135.4,224.5c-.6,0-1.1-.2-1.5-.6-.3-.4-.5-.9-.5-1.7s.2-1.3.5-1.7.9-.6,1.5-.6h.6c.2,0,.4,0,.5.2l-.2.6c-.2,0-.3-.1-.5-.2h-.5c-.9,0-1.3.6-1.3,1.7s.1,1,.3,1.2.5.4,1,.4.7,0,1.1-.2v.6c-.3.2-.7.2-1.1.2h0Z"/>
      <path class="cls-3" d="M-133.3,218.8c0-.2,0-.3.1-.3,0,0,.2-.1.3-.1s.2,0,.3.1.1.2.1.3,0,.3-.1.3c0,0-.2.1-.3.1s-.2,0-.3-.1-.1-.2-.1-.3ZM-132.6,224.4h-.7v-4.4h.7v4.4Z"/>
      <path class="cls-3" d="M-127.4,222.2c0,.7-.2,1.3-.5,1.7-.3.4-.9.6-1.5.6s-.7,0-1-.3c-.3-.2-.5-.5-.7-.8s-.2-.8-.2-1.2c0-.7.2-1.3.5-1.7.4-.4.9-.6,1.5-.6s1.1.2,1.5.6.5,1,.5,1.7h-.1ZM-130.7,222.2c0,.6.1,1,.3,1.3s.6.4,1,.4.8-.2,1-.4c.2-.3.3-.7.3-1.3s-.1-1-.3-1.3-.6-.4-1-.4-.8.1-1,.4-.3.7-.3,1.3h0ZM-129.9,219.3c.1-.2.3-.4.4-.6.1-.2.3-.4.4-.6h.8c-.1.2-.3.5-.5.7s-.4.5-.6.6h-.4c0-.1,0-.1,0-.1Z"/>
      <path class="cls-3" d="M-123.2,224.4v-2.8c0-.4,0-.6-.2-.8s-.4-.3-.8-.3-.8.1-1,.4c-.2.2-.3.7-.3,1.2v2.3h-.7v-4.4h.5v.6h0c0-.2.3-.4.6-.5.2-.1.5-.2.8-.2.5,0,.9.1,1.2.4.3.2.4.7.4,1.2v2.9h-.7,0Z"/>
    </g>
    <g>
      <path class="cls-1" d="M-215.4,172.1c0,3.9-1.2,6.9-3.7,9s-5.9,3.1-10.4,3.1h-3.3v12.9h-7.7v-36.4h11.6c4.4,0,7.8.9,10.1,2.8,2.3,1.9,3.5,4.7,3.4,8.5h0ZM-232.8,177.8h2.5c2.4,0,4.2-.5,5.3-1.4,1.2-.9,1.8-2.3,1.8-4.1s-.5-3.1-1.5-4-2.5-1.3-4.6-1.3h-3.5v10.8Z"/>
      <path class="cls-1" d="M-138.6,197.1h-9.8l-15.8-27.5h-.2c.3,4.9.5,8.3.5,10.4v17.1h-6.9v-36.4h9.7l15.8,27.2h.2c-.2-4.7-.4-8.1-.4-10v-17.2h6.9v36.4h0Z"/>
    </g>
    <g>
      <path class="cls-2" d="M-201.9,197.7v-6.9c5.7.2,9.1-.1,10.4-.6,4.3-1.2,6.8-4.2,7.5-8.5.5-2.6.4-5.1-.3-7.6-1.2-4.3-4-6.7-8.3-7.5-1.2-.2-2.5-.3-3.8-.3h-16.2v-6.2h15.3c3.1,0,6.1.4,9,1.5,4.7,1.8,7.8,5.1,9.2,9.9,1.5,5.2,1.5,10.4-.2,15.5-1.8,5.4-5.7,8.6-11.1,10-1.3.3-6.3,1-11.7.8h.2Z"/>
      <path class="cls-2" d="M-201.8,177.6v-4.9c0-.4.1-.6.5-.5,1.7,0,4.2,0,5.9.2,2.8.3,4.3,2.1,4.2,5,0,1.6-.3,3.1-1.5,4.2-1.1,1-2.4,1.4-3.8,1.5h-4.9c-.4,0-.5-.2-.5-.5v-5h.1Z"/>
    </g>
  </g>
  <g>
    <g>
      <path class="cls-1" d="M40.7,18c0,5.2-1.6,9.2-4.9,11.9-3.2,2.7-7.9,4.1-13.8,4.1h-4.4v17.2H7.4V3h15.4c5.8,0,10.3,1.3,13.3,3.8,3.1,2.5,4.6,6.3,4.6,11.3h0ZM17.6,25.6h3.4c3.1,0,5.5-.6,7.1-1.9,1.6-1.2,2.3-3.1,2.3-5.4s-.6-4.2-2-5.3c-1.3-1.1-3.4-1.7-6.2-1.7h-4.7v14.3h.1Z"/>
      <path class="cls-1" d="M142.6,51.2h-13l-21-36.5h-.3c.4,6.4.6,11,.6,13.8v22.7h-9.1V3h12.9l21,36.1h.2c-.3-6.3-.5-10.7-.5-13.3V3h9.2v48.2h0Z"/>
    </g>
    <g>
      <path class="cls-2" d="M58.7,52v-9.1c7.6.2,12-.2,13.9-.8,5.8-1.6,9-5.5,10-11.3.6-3.4.5-6.8-.4-10.1-1.5-5.6-5.3-8.9-11-10-1.6-.3-3.3-.4-5-.5h-21.6V2h20.3c4.1,0,8.1.5,11.9,1.9,6.3,2.4,10.4,6.8,12.3,13.2,2,6.8,2,13.7-.3,20.5-2.4,7.1-7.5,11.4-14.7,13.3-1.7.5-8.4,1.4-15.5,1h0Z"/>
      <path class="cls-2" d="M58.8,25.4v-6.5c0-.6,0-.7.7-.7,2.2,0,5.6,0,7.8.3,3.7.4,5.6,2.8,5.6,6.6s-.4,4.1-2,5.6c-1.4,1.3-3.1,1.9-5,2-1.8,0-4.7,0-6.5,0s-.6-.2-.6-.7v-6.6h0Z"/>
    </g>
  </g>
</svg>